<svg width="16" height="17" viewBox="0 0 16 17" fill="none" xmlns="http://www.w3.org/2000/svg">
<g clip-path="url(#clip0_246_441)">
<path d="M12.0539 0.0645252H3.9714C3.90511 0.0640564 3.83796 0.0658689 3.77074 0.070119C2.38464 0.159994 1.29883 1.3525 1.29883 2.78525V11.5853C1.29883 12.4565 1.89014 13.1922 2.69261 13.4119V15.5645C2.69261 15.756 2.80211 15.9307 2.97436 16.0143C3.04368 16.048 3.11827 16.0645 3.19249 16.0645C3.30286 16.0645 3.41224 16.0281 3.50218 15.9572L6.64584 13.4789H10.7373C11.7814 13.4789 12.6309 12.6294 12.6309 11.5852V4.23907H14.2011C14.3337 4.23907 14.4609 4.18644 14.5546 4.0926C14.6484 3.99885 14.7011 3.87166 14.7011 3.73909V2.71175C14.7011 1.25206 13.5136 0.0645252 12.0539 0.0645252ZM10.7373 12.4789H6.47253C6.36021 12.4789 6.25121 12.5167 6.16296 12.5862L3.69261 14.5337V12.9789C3.69261 12.7028 3.46874 12.4789 3.19261 12.4789C2.6998 12.4789 2.2988 12.078 2.2988 11.5853V2.78525C2.2988 1.87815 2.97374 1.12387 3.83543 1.06821C3.8713 1.06575 3.90708 1.06456 3.94271 1.06456C3.9438 1.06456 3.9449 1.06456 3.94599 1.06456H3.9538C4.3719 1.0664 4.76521 1.22203 5.07196 1.50962C5.40799 1.82456 5.59306 2.25156 5.59306 2.71178V3.73913C5.59306 4.01525 5.81693 4.23913 6.09306 4.23913H11.6309V11.5853H11.6309C11.6309 12.078 11.23 12.4789 10.7373 12.4789ZM13.7012 3.23909H6.59312V2.71175C6.59312 2.1125 6.38681 1.52987 6.01781 1.06453H12.0539C12.9623 1.06453 13.7011 1.8034 13.7011 2.71175L13.7012 3.23909Z" fill="#131313"/>
<path d="M10.0498 5.75195H4.17481C3.96762 5.75195 3.7998 5.91992 3.7998 6.12695C3.7998 6.33399 3.96765 6.50195 4.17481 6.50195H10.0498C10.2569 6.50195 10.4248 6.33399 10.4248 6.12695C10.4248 5.91992 10.2569 5.75195 10.0498 5.75195Z" fill="#131313"/>
<path d="M10.0498 7.8457H4.17481C3.96765 7.8457 3.7998 8.01367 3.7998 8.2207C3.7998 8.42774 3.96765 8.59571 4.17481 8.59571H10.0498C10.2569 8.59571 10.4248 8.42774 10.4248 8.2207C10.4248 8.01367 10.2569 7.8457 10.0498 7.8457Z" fill="#131313"/>
<path d="M10.0498 9.93945H4.17481C3.96765 9.93945 3.7998 10.1074 3.7998 10.3145C3.7998 10.5215 3.96765 10.6895 4.17481 10.6895H10.0498C10.2569 10.6895 10.4248 10.5215 10.4248 10.3145C10.4248 10.1074 10.2569 9.93945 10.0498 9.93945Z" fill="#131313"/>
</g>
<defs>
<clipPath id="clip0_246_441">
<rect width="16" height="16" fill="white" transform="translate(0 0.0644531)"/>
</clipPath>
</defs>
</svg>
