<svg width="20" height="21" viewBox="0 0 20 21" fill="none" xmlns="http://www.w3.org/2000/svg">
<rect y="0.0644531" width="20" height="20" rx="4" fill="#BBC0C8"/>
<g clip-path="url(#clip0_246_455)">
<path d="M10.0003 15.3971C12.9458 15.3971 15.3337 13.0093 15.3337 10.0638C15.3337 7.11828 12.9458 4.73047 10.0003 4.73047C7.05481 4.73047 4.66699 7.11828 4.66699 10.0638C4.66699 13.0093 7.05481 15.3971 10.0003 15.3971Z" fill="white"/>
<path d="M11.7456 8.05762H8.25511C8.11562 8.05762 7.9775 8.0851 7.84864 8.13851C7.71977 8.19191 7.60269 8.27018 7.50409 8.36885C7.40549 8.46751 7.3273 8.58464 7.27398 8.71354C7.22066 8.84244 7.19327 8.98058 7.19336 9.12007V11.0078C7.19327 11.1473 7.22066 11.2854 7.27398 11.4143C7.3273 11.5432 7.40549 11.6604 7.50409 11.759C7.60269 11.8577 7.71977 11.936 7.84864 11.9894C7.9775 12.0428 8.11562 12.0702 8.25511 12.0702H11.7456C11.8851 12.0702 12.0233 12.0428 12.1521 11.9894C12.281 11.936 12.3981 11.8577 12.4967 11.759C12.5953 11.6604 12.6735 11.5432 12.7268 11.4143C12.7801 11.2854 12.8075 11.1473 12.8074 11.0078V9.12007C12.8075 8.98058 12.7801 8.84244 12.7268 8.71354C12.6735 8.58464 12.5953 8.46751 12.4967 8.36885C12.3981 8.27018 12.281 8.19191 12.1521 8.13851C12.0233 8.0851 11.8851 8.05762 11.7456 8.05762ZM9.26073 10.9243V9.20358L10.74 10.0639L9.26073 10.9243Z" fill="#BBC0C8"/>
</g>
<defs>
<clipPath id="clip0_246_455">
<rect width="10.6667" height="10.6667" fill="white" transform="translate(4.66699 4.73047)"/>
</clipPath>
</defs>
</svg>
