<svg width="20" height="21" viewBox="0 0 20 21" fill="none" xmlns="http://www.w3.org/2000/svg">
<rect y="0.0644531" width="20" height="20" rx="4" fill="#BBC0C8"/>
<g clip-path="url(#clip0_246_467)">
<path d="M12.156 4.73047H7.84465C6.09248 4.73047 4.66699 6.15596 4.66699 7.90813V12.2195C4.66699 13.9716 6.09248 15.3971 7.84465 15.3971H12.156C13.9082 15.3971 15.3337 13.9716 15.3337 12.2195V7.90813C15.3336 6.15596 13.9081 4.73047 12.156 4.73047ZM14.2606 12.2195C14.2606 13.3818 13.3183 14.3241 12.156 14.3241H7.84465C6.68233 14.3241 5.74006 13.3818 5.74006 12.2195V7.90813C5.74006 6.74578 6.68233 5.80353 7.84465 5.80353H12.156C13.3183 5.80353 14.2606 6.74578 14.2606 7.90813V12.2195Z" fill="white"/>
<path d="M10.0005 7.30469C8.47929 7.30469 7.2417 8.54227 7.2417 10.0634C7.2417 11.5846 8.47929 12.8222 10.0005 12.8222C11.5217 12.8222 12.7593 11.5846 12.7593 10.0634C12.7593 8.54225 11.5217 7.30469 10.0005 7.30469ZM10.0005 11.7492C9.06948 11.7492 8.31477 10.9945 8.31477 10.0635C8.31477 9.13247 9.0695 8.37775 10.0005 8.37775C10.9315 8.37775 11.6862 9.13247 11.6862 10.0635C11.6862 10.9944 10.9315 11.7492 10.0005 11.7492Z" fill="white"/>
<path d="M12.7646 7.98716C13.1297 7.98716 13.4256 7.69119 13.4256 7.3261C13.4256 6.96101 13.1297 6.66504 12.7646 6.66504C12.3995 6.66504 12.1035 6.96101 12.1035 7.3261C12.1035 7.69119 12.3995 7.98716 12.7646 7.98716Z" fill="white"/>
</g>
<defs>
<clipPath id="clip0_246_467">
<rect width="10.6667" height="10.6667" fill="white" transform="translate(4.66699 4.73047)"/>
</clipPath>
</defs>
</svg>
