<svg width="20" height="21" viewBox="0 0 20 21" fill="none" xmlns="http://www.w3.org/2000/svg">
<rect y="0.0644531" width="20" height="20" rx="4" fill="#BBC0C8"/>
<g clip-path="url(#clip0_246_463)">
<path d="M15.3337 10.0638C15.3337 7.11797 12.9462 4.73047 10.0003 4.73047C7.05449 4.73047 4.66699 7.11797 4.66699 10.0638C4.66699 13.0096 7.05449 15.3971 10.0003 15.3971C10.0316 15.3971 10.0628 15.3971 10.0941 15.3951V11.2451H8.94824V9.90964H10.0941V8.9263C10.0941 7.78672 10.7899 7.16589 11.8066 7.16589C12.2941 7.16589 12.7128 7.2013 12.8337 7.21797V8.40964H12.1337C11.5816 8.40964 11.4732 8.67214 11.4732 9.05755V9.90755H12.7962L12.6232 11.243H11.4732V15.1909C13.7024 14.5513 15.3337 12.4992 15.3337 10.0638Z" fill="white"/>
</g>
<defs>
<clipPath id="clip0_246_463">
<rect width="10.6667" height="10.6667" fill="white" transform="translate(4.66699 4.73047)"/>
</clipPath>
</defs>
</svg>
