<svg width="20" height="21" viewBox="0 0 20 21" fill="none" xmlns="http://www.w3.org/2000/svg">
<path fill-rule="evenodd" clip-rule="evenodd" d="M5.05025 15.4498C4.86272 15.2622 4.75733 15.0078 4.75736 14.7427C4.75738 14.4775 4.86271 14.2231 5.05025 14.0355L13.5355 5.55026C13.7231 5.36273 13.9775 5.25737 14.2426 5.25737C14.5078 5.25737 14.7622 5.36273 14.9497 5.55026C15.1373 5.73778 15.2426 5.9922 15.2426 6.25736C15.2426 6.52253 15.1373 6.77695 14.9497 6.96447L6.46446 15.4498C6.27692 15.6373 6.02254 15.7426 5.75735 15.7426C5.49216 15.7427 5.23777 15.6373 5.05025 15.4498Z" fill="#1E1E1E"/>
<path fill-rule="evenodd" clip-rule="evenodd" d="M14.9497 15.4498C14.7622 15.6373 14.5078 15.7427 14.2426 15.7426C13.9774 15.7426 13.723 15.6373 13.5355 15.4498L5.05023 6.96447C4.8627 6.77695 4.75734 6.52253 4.75734 6.25737C4.75734 5.9922 4.8627 5.73778 5.05023 5.55026C5.23775 5.36273 5.49217 5.25738 5.75733 5.25738C6.0225 5.25738 6.27692 5.36273 6.46444 5.55026L14.9497 14.0355C15.1373 14.2231 15.2426 14.4775 15.2426 14.7427C15.2426 15.0078 15.1372 15.2622 14.9497 15.4498Z" fill="#1E1E1E"/>
</svg>
