<svg width="16" height="17" viewBox="0 0 16 17" fill="none" xmlns="http://www.w3.org/2000/svg">
<g clip-path="url(#clip0_246_408)">
<path d="M6.16663 5.39783H1.16663C0.523315 5.39783 0 4.87451 0 4.23108V1.23108C0 0.587769 0.523315 0.0644531 1.16663 0.0644531H6.16663C6.81006 0.0644531 7.33337 0.587769 7.33337 1.23108V4.23108C7.33337 4.87451 6.81006 5.39783 6.16663 5.39783ZM1.16663 1.06445C1.07471 1.06445 1 1.13916 1 1.23108V4.23108C1 4.32312 1.07471 4.39783 1.16663 4.39783H6.16663C6.25867 4.39783 6.33337 4.32312 6.33337 4.23108V1.23108C6.33337 1.13916 6.25867 1.06445 6.16663 1.06445H1.16663Z" fill="#131313"/>
<path d="M6.16663 16.0648H1.16663C0.523315 16.0648 0 15.5415 0 14.8982V7.89819C0 7.25476 0.523315 6.73145 1.16663 6.73145H6.16663C6.81006 6.73145 7.33337 7.25476 7.33337 7.89819V14.8982C7.33337 15.5415 6.81006 16.0648 6.16663 16.0648ZM1.16663 7.73145C1.07471 7.73145 1 7.80615 1 7.89819V14.8982C1 14.9901 1.07471 15.0648 1.16663 15.0648H6.16663C6.25867 15.0648 6.33337 14.9901 6.33337 14.8982V7.89819C6.33337 7.80615 6.25867 7.73145 6.16663 7.73145H1.16663Z" fill="#131313"/>
<path d="M14.8333 16.0648H9.83325C9.18982 16.0648 8.6665 15.5415 8.6665 14.8982V11.8982C8.6665 11.2548 9.18982 10.7314 9.83325 10.7314H14.8333C15.4766 10.7314 15.9999 11.2548 15.9999 11.8982V14.8982C15.9999 15.5415 15.4766 16.0648 14.8333 16.0648ZM9.83325 11.7314C9.74121 11.7314 9.6665 11.8062 9.6665 11.8982V14.8982C9.6665 14.9901 9.74121 15.0648 9.83325 15.0648H14.8333C14.9252 15.0648 14.9999 14.9901 14.9999 14.8982V11.8982C14.9999 11.8062 14.9252 11.7314 14.8333 11.7314H9.83325Z" fill="#131313"/>
<path d="M14.8333 9.39783H9.83325C9.18982 9.39783 8.6665 8.87451 8.6665 8.23108V1.23108C8.6665 0.587769 9.18982 0.0644531 9.83325 0.0644531H14.8333C15.4766 0.0644531 15.9999 0.587769 15.9999 1.23108V8.23108C15.9999 8.87451 15.4766 9.39783 14.8333 9.39783ZM9.83325 1.06445C9.74121 1.06445 9.6665 1.13916 9.6665 1.23108V8.23108C9.6665 8.32312 9.74121 8.39783 9.83325 8.39783H14.8333C14.9252 8.39783 14.9999 8.32312 14.9999 8.23108V1.23108C14.9999 1.13916 14.9252 1.06445 14.8333 1.06445H9.83325Z" fill="#131313"/>
</g>
<defs>
<clipPath id="clip0_246_408">
<rect width="16" height="16" fill="white" transform="translate(0 0.0644531)"/>
</clipPath>
</defs>
</svg>
