<svg width="16" height="16" viewBox="0 0 16 16" fill="none" xmlns="http://www.w3.org/2000/svg">
<g id="editing 1" clip-path="url(#clip0_223_1435)">
<g id="Group">
<path id="Vector" d="M12.9692 6.93764C12.7103 6.93764 12.5004 7.14752 12.5004 7.4064V14.2816C12.5004 14.7124 12.1499 15.0629 11.7191 15.0629H1.7188C1.28801 15.0629 0.937529 14.7124 0.937529 14.2816V4.2813C0.937529 3.85051 1.28801 3.50003 1.7188 3.50003H8.59402C8.8529 3.50003 9.06278 3.29015 9.06278 3.03126C9.06278 2.77238 8.8529 2.5625 8.59402 2.5625H1.7188C0.771055 2.5625 0 3.33356 0 4.2813V14.2816C0 15.2294 0.771055 16.0004 1.7188 16.0004H11.7191C12.6669 16.0004 13.4379 15.2294 13.4379 14.2816V7.4064C13.4379 7.14752 13.228 6.93764 12.9692 6.93764Z" fill="#26DEE3"/>
<path id="Vector_2" d="M15.6809 1.20377L14.797 0.319838C14.3706 -0.106613 13.6767 -0.106613 13.2502 0.319838L6.17892 7.39112C6.11348 7.45656 6.06888 7.53991 6.05069 7.63066L5.60871 9.84045C5.57799 9.99414 5.62609 10.153 5.73693 10.2638C5.82572 10.3526 5.94532 10.4012 6.06838 10.4012C6.09898 10.4012 6.12973 10.3982 6.16029 10.3921L8.37008 9.95008C8.46083 9.93192 8.54418 9.88729 8.60962 9.82185L15.6809 2.7506C15.6809 2.7506 15.681 2.7506 15.681 2.75057C16.1074 2.32415 16.1074 1.63025 15.6809 1.20377ZM8.04707 9.05858L6.66596 9.33484L6.94222 7.95373L12.6977 2.19815L13.8026 3.30306L8.04707 9.05858ZM15.018 2.08767L14.4656 2.64013L13.3606 1.53522L13.9131 0.982796C13.974 0.921857 14.0731 0.921826 14.1341 0.982765L15.018 1.8667C15.0789 1.92761 15.0789 2.02677 15.018 2.08767Z" fill="#26DEE3"/>
</g>
</g>
<defs>
<clipPath id="clip0_223_1435">
<rect width="16" height="16" fill="white"/>
</clipPath>
</defs>
</svg>
