<svg width="21" height="20" viewBox="0 0 21 20" fill="none" xmlns="http://www.w3.org/2000/svg">
<g clip-path="url(#clip0_23_2223)">
<path d="M15.0449 10.5036H10.4082V9.84216H15.0449C16.657 9.84216 17.9684 8.5306 17.9684 6.91849C17.9684 6.13677 17.6645 5.40231 17.1129 4.85054C16.5611 4.29889 15.8266 3.995 15.0449 3.995H12.8059V3.3335H15.0449C16.0033 3.3335 16.9039 3.70621 17.5805 4.38281C18.2571 5.05942 18.6298 5.96005 18.6298 6.91843C18.6298 8.89537 17.0216 10.5036 15.0449 10.5036Z" fill="#131313"/>
<path d="M8.09375 16.3472H16.375V17.0086H8.09375V16.3472Z" fill="#131313"/>
<path d="M5.72208 17.0085H4.76969C2.7928 17.0085 1.18457 15.4003 1.18457 13.4234C1.18457 12.4687 1.5571 11.5685 2.23339 10.8884C2.9084 10.2132 3.80897 9.8418 4.76969 9.8418H8.03717V10.5032H4.76969C3.98569 10.5032 3.25123 10.8058 2.70174 11.3554C2.15009 11.9101 1.84602 12.6447 1.84602 13.4233C1.84602 15.0355 3.15757 16.347 4.76969 16.347H5.72214L5.72208 17.0085Z" fill="#131313"/>
<path d="M3.21484 3.3335H10.4345V3.99494H3.21484V3.3335Z" fill="#131313"/>
<path d="M2.02955 5.02199C1.18615 5.02199 0.5 4.33584 0.5 3.49244C0.5 2.64904 1.18615 1.96289 2.02955 1.96289C2.87295 1.96289 3.5591 2.64904 3.5591 3.49244C3.5591 4.33584 2.87301 5.02199 2.02955 5.02199ZM2.02955 2.62427C1.55092 2.62427 1.16138 3.01375 1.16138 3.49244C1.16138 3.97113 1.55086 4.36061 2.02955 4.36061C2.50824 4.36061 2.89772 3.97113 2.89772 3.49244C2.89772 3.01375 2.50824 2.62427 2.02955 2.62427Z" fill="#131313"/>
<path d="M11.6188 5.02025C10.8639 5.02025 10.214 4.45745 10.1075 3.7111C10.0958 3.64715 10.0908 3.57204 10.0908 3.4923C10.0908 2.64983 10.7763 1.96436 11.6188 1.96436C12.463 1.96436 13.15 2.64983 13.15 3.4923C13.15 3.5721 13.145 3.64715 13.1316 3.72225C13.0268 4.45745 12.3756 5.02025 11.6188 5.02025ZM11.6188 2.62574C11.1409 2.62574 10.7523 3.01441 10.7523 3.49224C10.7523 3.53162 10.7537 3.56895 10.7603 3.60623C10.8225 4.04001 11.1908 4.35875 11.6188 4.35875C12.0487 4.35875 12.4183 4.03995 12.4787 3.61738C12.4871 3.56895 12.4885 3.53162 12.4885 3.49224C12.4885 3.01447 12.0983 2.62574 11.6188 2.62574Z" fill="#131313"/>
<path d="M9.22131 11.5288C8.46621 11.5288 7.81653 10.966 7.71 10.2199C7.69835 10.1556 7.69336 10.0805 7.69336 10.0011C7.69336 9.15668 8.37884 8.46973 9.22131 8.46973C10.0656 8.46973 10.7525 9.15668 10.7525 10.0011C10.7525 10.0805 10.7475 10.1556 10.7341 10.2308C10.6293 10.966 9.9782 11.5288 9.22131 11.5288ZM9.22131 9.13111C8.74348 9.13111 8.35481 9.52145 8.35481 10.001C8.35481 10.0404 8.35628 10.0777 8.36288 10.1152C8.42505 10.5488 8.79339 10.8674 9.22131 10.8674C9.6512 10.8674 10.0208 10.5488 10.0812 10.1261C10.0896 10.0777 10.0911 10.0404 10.0911 10.001C10.0911 9.52139 9.70093 9.13111 9.22131 9.13111Z" fill="#131313"/>
<path d="M6.90914 18.0373C6.14757 18.0373 5.49629 17.4721 5.39426 16.7225C5.3828 16.6605 5.37793 16.5849 5.37793 16.5094C5.37793 15.6651 6.06488 14.978 6.90914 14.978C7.75162 14.978 8.43709 15.6652 8.43709 16.5094C8.43709 16.585 8.43223 16.6605 8.41867 16.7361C8.31873 17.4721 7.66874 18.0373 6.90914 18.0373ZM6.90914 15.6393C6.42953 15.6393 6.03938 16.0297 6.03938 16.5094C6.03938 16.5462 6.04098 16.583 6.04745 16.6198C6.10721 17.0568 6.47685 17.3759 6.90914 17.3759C7.33965 17.3759 7.70787 17.0568 7.76548 16.6334C7.77405 16.583 7.77565 16.5462 7.77565 16.5094C7.77565 16.0297 7.38698 15.6393 6.90914 15.6393Z" fill="#131313"/>
<path d="M17.1012 17.7066C16.5183 17.7066 16.0439 17.2321 16.0439 16.6492C16.0439 16.0662 16.5182 15.5918 17.1012 15.5918C17.6843 15.5918 18.1586 16.0662 18.1586 16.6492C18.1586 17.2321 17.6843 17.7066 17.1012 17.7066ZM17.1012 16.2532C16.883 16.2532 16.7054 16.4308 16.7054 16.6491C16.7054 16.8674 16.883 17.0451 17.1012 17.0451C17.3195 17.0451 17.4972 16.8674 17.4972 16.6491C17.4972 16.4308 17.3195 16.2532 17.1012 16.2532Z" fill="#131313"/>
<path d="M17.1012 11.974C16.9186 11.974 16.7705 11.8259 16.7705 11.6433V11.2394C16.7705 11.0568 16.9186 10.9087 17.1012 10.9087C17.2838 10.9087 17.4319 11.0568 17.4319 11.2394V11.6433C17.432 11.8258 17.2838 11.974 17.1012 11.974Z" fill="#131313"/>
<path d="M17.1012 16.2535C16.9186 16.2535 16.7705 16.1056 16.7705 15.9228V13.7428C16.7705 13.5602 16.9186 13.4121 17.1012 13.4121C17.2838 13.4121 17.4319 13.5602 17.4319 13.7428V15.9228C17.432 16.1056 17.2838 16.2535 17.1012 16.2535Z" fill="#131313"/>
<path d="M20.1694 14.0735H17.1012C16.9186 14.0735 16.7705 13.9254 16.7705 13.7428V11.6437C16.7705 11.4611 16.9186 11.313 17.1012 11.313H20.1694C20.2927 11.313 20.4055 11.3814 20.4625 11.4906C20.5195 11.5996 20.5113 11.7314 20.4409 11.8325L19.8424 12.693L20.441 13.554C20.5113 13.6551 20.5195 13.7869 20.4625 13.896C20.4055 14.005 20.2925 14.0735 20.1694 14.0735ZM17.432 13.4121H19.5367L19.1679 12.8817C19.0891 12.7682 19.0891 12.6175 19.1681 12.5041L19.5366 11.9743H17.432V13.4121H17.432Z" fill="#131313"/>
</g>
<defs>
<clipPath id="clip0_23_2223">
<rect width="20" height="20" fill="white" transform="translate(0.5)"/>
</clipPath>
</defs>
</svg>
