<svg width="20" height="20" viewBox="0 0 20 20" fill="none" xmlns="http://www.w3.org/2000/svg">
<path fill-rule="evenodd" clip-rule="evenodd" d="M19.9688 10C19.9688 15.5227 15.4985 20 9.98442 20C4.47034 20 0 15.5227 0 10C0 4.47728 4.47034 0 9.98442 0C15.4985 0 19.9688 4.47728 19.9688 10Z" fill="#15C39A"/>
<path fill-rule="evenodd" clip-rule="evenodd" d="M11.2891 12.159C11.3479 12.4861 11.6552 12.7106 11.9877 12.7106H13.0335L13.6398 12.6261C12.6695 14.0515 10.9853 14.7072 9.14351 14.418C7.64406 14.1823 6.35602 13.1657 5.8121 11.7467C4.57866 8.52525 6.92724 5.45011 9.98844 5.45011C11.5838 5.45011 12.9824 6.3851 13.7847 7.51427C13.9975 7.82171 14.4203 7.93428 14.7276 7.72111C14.8672 7.62609 14.9657 7.48132 15.0031 7.3161C15.0405 7.15088 15.0141 6.97753 14.9292 6.83114C14.3606 5.94126 13.5643 5.22153 12.6236 4.74744C11.683 4.27335 10.6328 4.06237 9.58312 4.13662C6.66403 4.3329 4.30145 6.72561 4.13345 9.6509C3.93884 13.056 6.63463 15.8349 9.98844 15.8349C10.8247 15.8384 11.6518 15.6605 12.4134 15.3134C13.175 14.9663 13.8531 14.4581 14.4014 13.8235L14.274 14.5369V15.1814C14.274 15.5134 14.498 15.8216 14.8249 15.8807C14.9225 15.8991 15.0229 15.8958 15.1191 15.8709C15.2153 15.846 15.3048 15.8001 15.3814 15.7365C15.458 15.673 15.5197 15.5932 15.5621 15.503C15.6046 15.4128 15.6268 15.3142 15.6271 15.2144V11.3549H11.9541C11.8547 11.3547 11.7566 11.3766 11.6666 11.4189C11.5766 11.4612 11.497 11.523 11.4335 11.5998C11.37 11.6766 11.3241 11.7665 11.2992 11.8632C11.2742 11.9598 11.2708 12.0608 11.2891 12.159Z" fill="white"/>
</svg>
