<svg width="67" height="20" viewBox="0 0 67 20" fill="none" xmlns="http://www.w3.org/2000/svg">
<g clip-path="url(#clip0_30_2675)">
<path d="M6.05223 7.63825C7.21295 7.63825 7.97986 8.22259 8.3115 9.37042L10.778 8.53564C10.5293 7.57564 10.0111 6.76172 9.18204 6.0939C8.35295 5.42607 7.27514 5.07129 5.99004 5.07129C4.49768 5.07129 3.23332 5.59303 2.21768 6.61564C1.20204 7.65912 0.70459 8.95303 0.70459 10.5182C0.70459 12.0835 1.20204 13.3774 2.23841 14.4209C3.27477 15.4643 4.53914 15.9652 6.07295 15.9652C7.33732 15.9652 8.39441 15.6313 9.2235 14.9426C10.0526 14.2748 10.5915 13.4609 10.8402 12.5009L8.41514 11.6869C8.27004 12.1669 8.00059 12.5843 7.6275 12.9182C7.23368 13.2522 6.7155 13.4191 6.07295 13.4191C5.32677 13.4191 4.70495 13.1687 4.2075 12.6469C3.71004 12.1252 3.46132 11.4156 3.46132 10.5182C3.46132 9.64172 3.71004 8.93216 4.2075 8.41042C4.70495 7.90955 5.30604 7.63825 6.05223 7.63825ZM16.6733 13.44C15.9479 13.44 15.326 13.1895 14.8286 12.6678C14.3311 12.1669 14.0824 11.4365 14.0824 10.5182C14.0824 9.59998 14.3311 8.89042 14.8286 8.36868C15.326 7.86781 15.9479 7.59651 16.6733 7.59651C17.378 7.59651 17.9999 7.86781 18.4973 8.36868C18.9948 8.89042 19.2642 9.59998 19.2642 10.5182C19.2642 11.4365 18.9948 12.1669 18.4973 12.6678C17.9999 13.1895 17.378 13.44 16.6733 13.44ZM16.6733 5.07129C15.1395 5.07129 13.8544 5.59303 12.8388 6.61564C11.8231 7.65912 11.3257 8.95303 11.3257 10.5182C11.3257 12.1043 11.8231 13.3982 12.8388 14.4209C13.8544 15.4643 15.1395 15.9652 16.6733 15.9652C18.2071 15.9652 19.4715 15.4643 20.4871 14.4209C21.5028 13.3982 22.021 12.1043 22.021 10.5182C22.021 8.95303 21.5028 7.65912 20.4871 6.61564C19.4715 5.59303 18.2071 5.07129 16.6733 5.07129ZM26.2801 19.6174V14.6504C26.8812 15.4852 27.8554 15.9026 29.2234 15.9026C30.6329 15.9026 31.7936 15.4017 32.6849 14.3791C33.5761 13.3774 34.0321 12.0835 34.0321 10.4974C34.0321 8.93216 33.5969 7.65912 32.7678 6.65738C31.918 5.65564 30.778 5.15477 29.3271 5.15477C28.5809 5.15477 27.9383 5.30085 27.3994 5.59303C26.8398 5.8852 26.446 6.21912 26.1972 6.63651V5.38433H23.5234V19.6174H26.2801ZM31.3169 10.5182C31.3169 11.4156 31.0681 12.1252 30.5914 12.6469C30.1147 13.1687 29.5136 13.4191 28.7881 13.4191C28.042 13.4191 27.4409 13.1687 26.9641 12.6261C26.4667 12.1043 26.2387 11.3948 26.2387 10.5182C26.2387 9.64172 26.4667 8.95303 26.9641 8.43129C27.4409 7.90955 28.042 7.63825 28.7881 7.63825C29.5136 7.63825 30.1147 7.90955 30.5914 8.41042C31.0681 8.93216 31.3169 9.64172 31.3169 10.5182ZM39.0648 19.7009L45.4695 5.38433H42.5263L40.0183 11.3948L37.303 5.38433H34.2146L38.5466 14.3582L36.1423 19.7009H39.0648Z" fill="#160647"/>
<path d="M46.4316 13.7532C46.4316 14.341 46.6337 14.8158 47.0379 15.2228C47.4421 15.6297 47.9136 15.8106 48.475 15.8106C49.0364 15.8106 49.5304 15.6297 49.9346 15.2228C50.3387 14.8158 50.5408 14.341 50.5408 13.7532C50.5408 13.188 50.3387 12.7132 49.9346 12.3062C49.5304 11.8993 49.0364 11.6958 48.475 11.6958C47.9136 11.6958 47.4421 11.8993 47.0379 12.3062C46.6337 12.7132 46.4316 13.188 46.4316 13.7532Z" fill="#47BAB7"/>
<path d="M52.0874 12.8555C52.0874 13.6903 52.3983 14.4207 53.0409 15.0259C53.6834 15.652 54.5332 15.9442 55.5903 15.9442C56.9376 15.9442 57.9325 15.4433 58.5958 14.4207C58.5958 14.9424 58.6165 15.3598 58.6994 15.652H61.2281C61.1452 15.1929 61.1038 14.6503 61.1038 14.0242V8.97373C61.1038 7.84678 60.7307 6.90765 60.0259 6.17721C59.3005 5.44678 58.1812 5.07112 56.6681 5.07112C55.383 5.07112 54.3674 5.42591 53.6005 6.09373C52.8129 6.78243 52.3776 7.57547 52.2947 8.45199L54.7405 8.97373C54.7819 8.5146 54.9685 8.11808 55.3001 7.78417C55.6318 7.47112 56.1085 7.30417 56.6889 7.30417C57.2278 7.30417 57.663 7.42938 57.9532 7.67982C58.2434 7.93025 58.4092 8.26417 58.4092 8.63982C58.4092 9.05721 58.1398 9.30765 57.6423 9.37025L55.1343 9.74591C54.2223 9.89199 53.4969 10.2259 52.9372 10.7476C52.3569 11.2903 52.0874 11.979 52.0874 12.8555ZM56.1707 13.8781C55.7561 13.8781 55.4245 13.7737 55.1965 13.5442C54.9478 13.3146 54.8441 13.0224 54.8441 12.6885C54.8441 11.9581 55.2587 11.5198 56.1085 11.3946L58.4092 11.0398V11.499C58.4092 12.3546 58.1812 12.9598 57.7667 13.3355C57.3521 13.7111 56.8132 13.8781 56.1707 13.8781ZM65.9656 15.652V5.38417H63.2089V15.652H65.9656ZM62.8772 2.02417C62.8772 2.4833 63.0431 2.87982 63.3747 3.21373C63.7063 3.54765 64.1002 3.7146 64.5769 3.7146C65.0329 3.7146 65.4474 3.54765 65.7791 3.21373C66.1107 2.87982 66.2765 2.4833 66.2765 2.02417C66.2765 1.54417 66.1107 1.12678 65.7791 0.792863C65.4474 0.458949 65.0329 0.291992 64.5769 0.291992C64.1002 0.291992 63.7063 0.479818 63.3747 0.813731C63.0431 1.14765 62.8772 1.56504 62.8772 2.02417Z" fill="#160248"/>
</g>
<defs>
<clipPath id="clip0_30_2675">
<rect width="66.5" height="20" fill="white"/>
</clipPath>
</defs>
</svg>
