<svg width="119" height="20" viewBox="0 0 119 20" fill="none" xmlns="http://www.w3.org/2000/svg">
<path d="M5.90105 16.0874C9.68861 16.0874 11.8021 13.6613 11.8021 10.0547V0.50293H8.85158V10.0547C8.85158 12.0001 7.78438 13.2241 5.90105 13.2241C4.01774 13.2241 2.95053 12.0001 2.95053 10.0547V0.50293H0V10.0547C0 13.6613 2.11349 16.0874 5.90105 16.0874Z" fill="#F16434"/>
<path d="M14.2793 15.8031H16.9996V14.6227C17.2926 14.9943 18.3807 16.0872 20.243 16.0872C23.3819 16.0872 25.6 13.6173 25.6 10.0982C25.6 6.55731 23.5493 4.08739 20.4105 4.08739C18.5272 4.08739 17.4391 5.18027 17.167 5.57371V0H14.2793V15.8031ZM17.0833 10.1201C17.0833 7.97806 18.297 6.75403 19.8874 6.75403C21.5614 6.75403 22.6915 8.13106 22.6915 10.1201C22.6915 12.1528 21.5196 13.4206 19.8874 13.4206C18.1296 13.4206 17.0833 11.9343 17.0833 10.1201Z" fill="#F16434"/>
<path d="M26.6699 10.1201C26.6699 13.5518 28.909 16.0872 32.4245 16.0872C35.1449 16.0872 36.6096 14.3824 37.0282 13.5737L35.124 12.0655C34.8101 12.5463 33.9521 13.4644 32.4664 13.4644C30.855 13.4644 29.6833 12.3715 29.6205 10.8414H37.3212C37.3421 10.6228 37.3421 10.4043 37.3421 10.1857C37.3421 6.44803 35.4169 4.0874 32.0269 4.0874C28.909 4.0874 26.6699 6.66661 26.6699 10.1201ZM29.7042 8.87423C29.8297 7.56277 30.7087 6.55732 32.0688 6.55732C33.3872 6.55732 34.3497 7.47534 34.4125 8.87423H29.7042Z" fill="#F16434"/>
<path d="M44.7831 4.0874C43.3393 4.0874 42.2511 4.89613 41.7698 6.03274V4.37154H38.9448V15.8031H41.8326V10.8196C41.8326 8.54636 42.6278 7.14747 44.7831 7.14747V4.0874Z" fill="#F16434"/>
<path d="M49.8335 16.0872C52.1981 16.0872 54.0396 14.6884 54.0396 12.4589C54.0396 8.37151 48.85 9.24581 48.85 7.43162C48.85 6.86333 49.3103 6.5136 49.98 6.5136C51.0053 6.5136 51.6122 7.16933 51.947 7.60648L53.8512 6.12016C53.328 5.224 52.1772 4.0874 50.1056 4.0874C47.8664 4.0874 46.1296 5.35514 46.1296 7.47534C46.1296 11.5409 51.2983 10.8633 51.2983 12.6119C51.2983 13.2677 50.7751 13.6393 49.9591 13.6393C48.7244 13.6393 47.992 13.0491 47.448 12.3933L45.7529 13.9671C46.3389 14.9507 47.6782 16.0872 49.8335 16.0872Z" fill="#F16434"/>
<path d="M59.2827 16.0868C60.7056 16.0868 61.7519 15.2562 62.2122 14.4694V15.8026H65.0372V4.37109H62.1494V11.2344C62.1494 12.4585 61.3962 13.3765 60.2034 13.3765C59.2199 13.3765 58.3828 12.5896 58.3828 11.3218V4.37109H55.4951V10.9721C55.4951 13.3983 56.1647 16.0868 59.2827 16.0868Z" fill="#F16434"/>
<path d="M68.0016 18.9506C68.9851 19.5189 70.5127 19.9998 72.0193 19.9998C75.2419 19.9998 77.8995 18.6228 77.8995 14.3605V4.37154H75.1791V5.57372C74.8652 5.13657 73.7561 4.0874 71.9147 4.0874C68.7967 4.0874 66.5786 6.57917 66.5786 10.0983C66.5786 13.6173 68.6502 16.0872 71.81 16.0872C73.7143 16.0872 74.7815 14.9507 75.0117 14.6227V15.1474C75.0117 16.9179 73.5678 17.4206 71.9984 17.4206C70.4918 17.4206 69.2362 16.8304 68.8804 16.6337L68.0016 18.9506ZM75.0954 10.0764C75.0954 12.1092 73.9654 13.4206 72.2914 13.4206C70.6592 13.4206 69.4873 12.0873 69.4873 10.0764C69.4873 8.06549 70.6383 6.75404 72.2704 6.75404C73.9654 6.75404 75.0954 8.13107 75.0954 10.0764Z" fill="#F16434"/>
<path d="M80.8761 18.9506C81.8595 19.5189 83.3872 19.9998 84.8938 19.9998C88.1164 19.9998 90.774 18.6228 90.774 14.3605V4.37154H88.0536V5.57372C87.7397 5.13657 86.6306 4.0874 84.7892 4.0874C81.6712 4.0874 79.4531 6.57917 79.4531 10.0983C79.4531 13.6173 81.5247 16.0872 84.6845 16.0872C86.5887 16.0872 87.656 14.9507 87.8862 14.6227V15.1474C87.8862 16.9179 86.4423 17.4206 84.8729 17.4206C83.3663 17.4206 82.1107 16.8304 81.7549 16.6337L80.8761 18.9506ZM87.9699 10.0764C87.9699 12.1092 86.8399 13.4206 85.1658 13.4206C83.5337 13.4206 82.3618 12.0873 82.3618 10.0764C82.3618 8.06549 83.5126 6.75404 85.1449 6.75404C86.8399 6.75404 87.9699 8.13107 87.9699 10.0764Z" fill="#F16434"/>
<path d="M92.3691 10.1201C92.3691 13.5518 94.6083 16.0872 98.1237 16.0872C100.844 16.0872 102.309 14.3824 102.727 13.5737L100.823 12.0655C100.509 12.5463 99.6514 13.4644 98.1656 13.4644C96.5543 13.4644 95.3824 12.3715 95.3197 10.8414H103.02C103.041 10.6228 103.041 10.4043 103.041 10.1857C103.041 6.44803 101.116 4.0874 97.7261 4.0874C94.6083 4.0874 92.3691 6.66661 92.3691 10.1201ZM95.4034 8.87423C95.5289 7.56277 96.4078 6.55732 97.768 6.55732C99.0863 6.55732 100.049 7.47534 100.112 8.87423H95.4034Z" fill="#F16434"/>
<path d="M107.992 16.0872C110.357 16.0872 112.198 14.6884 112.198 12.4589C112.198 8.37151 107.009 9.24581 107.009 7.43162C107.009 6.86333 107.469 6.5136 108.139 6.5136C109.164 6.5136 109.771 7.16933 110.106 7.60648L112.01 6.12016C111.487 5.224 110.336 4.0874 108.264 4.0874C106.025 4.0874 104.288 5.35514 104.288 7.47534C104.288 11.5409 109.457 10.8633 109.457 12.6119C109.457 13.2677 108.934 13.6393 108.118 13.6393C106.883 13.6393 106.151 13.0491 105.607 12.3933L103.912 13.9671C104.497 14.9507 105.837 16.0872 107.992 16.0872Z" fill="#F16434"/>
<path d="M114.01 4.37162H112.838V6.81969H113.989V11.3224C113.989 14.4261 115.14 15.9562 117.756 15.9562C118.551 15.9562 118.99 15.8469 118.99 15.8469V13.2677C118.76 13.2896 118.656 13.2896 118.467 13.2896C117.358 13.2896 116.856 12.9398 116.856 11.2349V6.81969H118.907V4.37162H116.856V1.96729H114.01V4.37162Z" fill="#F16434"/>
</svg>
