<svg width="84" height="20" viewBox="0 0 84 20" fill="none" xmlns="http://www.w3.org/2000/svg">
<path d="M1.45687 8.10999H9.85288V10.2158L6.69557 10.4321C1.5954 10.7732 0 11.9775 0 15.3557V16.0367C0 18.5092 1.94287 20.0001 4.92587 20.0001C7.28548 20.0001 8.63844 19.5044 10.3043 17.987H10.5813V19.5972H13.9464V4.82764H1.45687V8.10999ZM9.85288 15.2321C8.81391 16.1592 7.25084 16.7774 5.96714 16.7774C4.58185 16.7774 3.98964 16.3128 4.02427 15.2907C4.05891 13.867 4.6488 13.5259 7.32011 13.3096L9.85288 13.0932V15.2321Z" fill="#FF8800"/>
<path fill-rule="evenodd" clip-rule="evenodd" d="M19.4711 4.51898H25.8444V7.58386H29.3203V19.591H25.265V7.90033H19.4711V19.591H15.4146V0H19.4711V4.51898ZM78.777 10.5856L76.3229 10.3638C74.9619 10.2376 74.6218 9.92216 74.6218 8.91075C74.6218 7.77312 75.0991 7.48819 77.0032 7.48819C78.7043 7.48819 79.184 7.74158 79.4233 8.81612H83.2406C83.1385 5.21398 81.9455 4.29504 77.2074 4.29504C72.027 4.29504 70.7318 5.21187 70.7318 8.90864C70.7318 12.29 71.6856 13.2058 75.5381 13.5538L77.5487 13.743C79.3552 13.9007 79.7976 14.2172 79.7976 15.2287C79.7976 16.461 79.2521 16.7763 77.0372 16.7763C75.0946 16.7763 74.5831 16.4925 74.4811 15.3233H70.6253C70.7273 19.0516 71.9544 20 76.8626 20C82.3152 20 83.6783 18.9886 83.6783 14.8807C83.684 11.8179 82.6962 10.9326 78.777 10.5856ZM57.8972 10.8696C57.8972 6.00359 56.0918 4.29715 50.9103 4.29715C45.7979 4.29715 43.7873 6.50512 43.7873 12.0072C43.7873 18.0118 45.5597 19.9979 51.2857 19.9979C55.4101 19.9979 57.1476 18.8288 57.727 15.5421H53.8077C53.3644 16.5577 52.8881 16.7785 51.2233 16.7785C48.7011 16.7785 48.0535 16.115 47.9174 13.3025H57.6306C57.7932 12.4999 57.8824 11.686 57.8972 10.8696ZM47.9458 10.3323C47.9798 8.21577 48.8995 7.42615 51.0815 7.42615C53.1602 7.42615 54.0119 8.21577 54.0811 10.3323H47.9458ZM60.2582 5.18138V19.591H64.3147V7.74156H69.1912V4.51793H64.3147V4.10788C64.3476 3.22258 64.5869 2.97025 65.3706 2.97025H69.8013V0H65.0281C61.7914 0 60.2582 0.915785 60.2582 5.18138ZM36.3501 19.591H32.2946V4.519H42.3832V8.05806H36.3501V19.591Z" fill="#131313"/>
</svg>
