<svg width="150" height="20" viewBox="0 0 150 20" fill="none" xmlns="http://www.w3.org/2000/svg">
<g clip-path="url(#clip0_30_2754)">
<path d="M103.562 7.846C103.562 5.38447 102.025 3.61523 99.1801 3.61523H89.8003V16.3845H92.8756V11.9999H96.4892L100.026 16.3845H103.486V16.0768L100.026 11.9229C102.255 11.4614 103.562 9.846 103.562 7.846ZM98.7957 9.38447H92.8756V6.23062H98.7957C99.872 6.23062 100.564 6.846 100.564 7.846C100.641 8.846 99.9489 9.38447 98.7957 9.38447Z" fill="#131313"/>
<path d="M150 3.53857H147.156V8.38473H139.39V3.53857H136.315V16.3078H139.39V11.3078H147.156V16.3078H150V3.53857Z" fill="#131313"/>
<path d="M81.5733 3.53857L78.1904 14.2309H78.0367L74.5769 3.53857H69.1182V16.3078H72.0397V5.84627H72.1935L75.5764 16.3078H80.2663L83.7261 5.84627H83.8798V16.3078H86.8783V3.53857H81.5733Z" fill="#131313"/>
<path d="M48.129 8.76942C47.0526 8.6925 45.0536 8.46173 43.9004 8.3848C42.824 8.30788 42.2089 7.92326 42.2089 7.23096C42.2089 6.53865 42.9009 6.00019 45.5149 6.00019C47.8214 6.00019 49.9742 6.53865 51.8963 7.3848V4.53865C50.051 3.61557 47.9752 3.23096 45.3611 3.23096C41.7476 3.23096 39.2104 4.76942 39.2104 7.30788C39.2104 9.46173 40.6712 10.6925 43.6697 11.0002C44.7461 11.154 46.5913 11.3079 47.8214 11.3848C49.2053 11.4617 49.5897 11.9233 49.5897 12.5386C49.5897 13.3848 48.5903 13.9233 46.2069 13.9233C43.7466 13.9233 41.2094 13.0771 39.3642 12.0002V14.9233C40.825 15.9233 43.2853 16.6925 46.13 16.6925C50.051 16.6925 52.5882 15.154 52.5882 12.4617C52.5882 10.3848 51.2812 9.07711 48.129 8.76942Z" fill="#131313"/>
<path d="M54.6641 3.53857V16.3078H66.5041V13.6924H57.5856V11.077H66.3504V8.46165H57.5856V6.15396H66.5041V3.53857H54.6641Z" fill="#131313"/>
<path d="M129.933 8.76942C128.857 8.6925 126.858 8.46173 125.705 8.3848C124.628 8.30788 124.013 7.92326 124.013 7.23096C124.013 6.53865 124.705 6.00019 127.319 6.00019C129.626 6.00019 131.778 6.46173 133.7 7.3848V4.53865C131.855 3.61557 129.779 3.23096 127.165 3.23096C123.552 3.23096 121.015 4.76942 121.015 7.30788C121.015 9.46173 122.475 10.6925 125.474 11.0002C126.55 11.154 128.395 11.3079 129.626 11.3848C131.01 11.4617 131.394 11.9233 131.394 12.5386C131.394 13.3848 130.394 13.9233 128.011 13.9233C125.551 13.9233 123.014 13.0771 121.168 12.0002V14.9233C122.629 15.9233 125.089 16.6925 127.934 16.6925C131.855 16.6925 134.392 15.154 134.392 12.4617C134.392 10.3848 133.009 9.07711 129.933 8.76942Z" fill="#131313"/>
<path d="M115.864 3.53857V10.077C115.864 12.5386 114.326 13.9232 112.097 13.9232C109.79 13.9232 108.329 12.6155 108.329 10.077V3.53857H105.254V9.76934C105.254 14.3847 108.175 16.6924 112.097 16.6924C115.941 16.6924 118.862 14.4617 118.862 9.92319V3.53857H115.864Z" fill="#131313"/>
<path d="M28.7545 9.84615C28.7545 10.4615 28.447 10.5385 27.6781 10.5385C26.8324 10.5385 26.6786 10.3846 26.6017 9.76923C26.448 8.15385 25.3716 6.76923 23.5264 6.69231C22.9882 6.61538 22.8344 6.46154 22.8344 5.69231C22.8344 5 22.9113 4.69231 23.4495 4.69231C26.5249 4.76923 28.7545 7.30769 28.7545 9.84615ZM33.2906 9.84615C33.2906 5.07692 30.0615 0 22.5269 0H7.68836C7.38083 0 7.15018 0.153846 7.15018 0.461538C7.15018 0.615385 7.22706 0.769231 7.38083 0.846154C7.91902 1.30769 8.68785 1.76923 9.76422 2.30769C10.7637 2.84615 11.6094 3.15385 12.3783 3.46154C12.6858 3.61538 12.8396 3.76923 12.8396 3.92308C12.8396 4.15385 12.6858 4.38462 12.3014 4.38462H0.538186C0.153767 4.30769 0 4.53846 0 4.76923C0 5 0.0768837 5.15385 0.230651 5.30769C1.15325 6.30769 2.69093 7.53846 4.92055 8.92308C6.84264 10.1538 9.30292 11.4615 11.225 12.3846C11.5325 12.5385 11.6863 12.6923 11.6863 12.9231C11.6863 13.1538 11.5325 13.3077 11.1481 13.3077H5.68939C5.38186 13.3077 5.22809 13.4615 5.22809 13.6923C5.22809 13.8462 5.30497 14 5.45874 14.1538C6.68888 15.3077 8.68785 16.4615 11.3019 17.6154C14.8385 19.0769 18.3752 20 22.3731 20C29.9846 20 33.2906 14.3077 33.2906 9.84615ZM23.3726 16.6923C19.6822 16.6923 16.53 13.6923 16.53 9.84615C16.53 6.15385 19.6053 3.15385 23.3726 3.15385C27.2168 3.15385 30.2153 6.15385 30.2153 9.84615C30.2153 13.6154 27.2168 16.6923 23.3726 16.6923Z" fill="#FF642D"/>
</g>
<defs>
<clipPath id="clip0_30_2754">
<rect width="150" height="20" fill="white"/>
</clipPath>
</defs>
</svg>
