<svg width="63" height="20" viewBox="0 0 63 20" fill="none" xmlns="http://www.w3.org/2000/svg">
<path d="M62.9409 17.4881V15.8018L47.9902 15.8018V17.4881H62.9409Z" fill="#3C81D5"/>
<path d="M62.9409 11.0311V9.34473H59.9509V11.0311H62.9409Z" fill="#3C81D5"/>
<path d="M61.3537 16.709H62.9409V9.51608H61.3537V16.709Z" fill="#3C81D5"/>
<path d="M50.9303 19.9709L48.5926 15.8031L46.4067 15.8018L48.6549 19.9999L50.9303 19.9709Z" fill="#3C81D5"/>
<path d="M31.4442 0H29.8569V16.8611H31.4442V0Z" fill="#3C81D5"/>
<path d="M1.26194 2.87109H0L0.00119417 4.28197H1.26194V2.87109ZM1.26194 5.98905H0V13.784H1.26194V5.98905Z" fill="#131313"/>
<path d="M6.34593 5.8833C5.38356 5.8833 4.56302 6.29253 4.05065 7.09021V5.99243H3.02344V13.7873H4.28546V9.92107L4.28665 9.36244C4.28665 7.77228 5.10716 7.06813 6.27742 7.06813C7.22878 7.06813 7.76439 7.62288 7.76439 8.72976V13.7873H9.02633V8.6531C9.02633 6.75374 7.91727 5.8833 6.34593 5.8833Z" fill="#131313"/>
<path d="M16.0753 8.3543V8.27635C16.0753 6.87197 15.0432 5.8833 13.2163 5.8833C11.5459 5.8833 10.394 6.71476 10.394 8.08406V8.09967C10.394 11.3034 14.9307 9.67033 14.9307 11.6061V11.6217C14.9307 12.3453 14.2423 12.7117 13.2995 12.7117C12.2221 12.7117 11.4872 12.2362 11.4872 11.3151V11.2995L10.2876 11.2982V11.3605C10.2876 12.8065 11.2695 13.8965 13.2995 13.8965C15.0787 13.8965 16.2661 13.0299 16.2661 11.5437V11.5281C16.2661 8.38287 11.7367 9.91978 11.7367 8.09967V8.08406C11.7367 7.54102 12.1121 7.06813 13.2163 7.06813C14.2545 7.06813 14.8769 7.37862 14.8769 8.3387V8.3543H16.0753Z" fill="#131313"/>
<path d="M20.2249 12.6977C19.3983 12.6977 19.0547 12.3794 19.0547 11.5843V7.19322H20.917V5.99279H19.0547V4.38574H17.7927V5.99279H16.8315V7.19322H17.7927V11.7389C17.7927 13.2005 18.502 13.8968 19.9767 13.8968C20.2812 13.8968 20.6187 13.867 20.9904 13.8085V12.6172C20.7055 12.6704 20.4499 12.6977 20.2249 12.6977Z" fill="#131313"/>
<path d="M24.7832 5.8833C23.0211 5.8833 21.9878 6.79661 21.9878 8.40366V8.48032H23.1654V8.40366C23.1654 7.58 23.7621 7.06813 24.7832 7.06813C25.7994 7.06813 26.3973 7.42541 26.3973 8.45304V9.12599L24.3503 9.30267C22.543 9.45857 21.731 10.203 21.731 11.6515V11.6671C21.731 12.952 22.7264 13.8965 24.2342 13.8965C25.3433 13.8965 26.0941 13.4768 26.5368 12.7883V13.7873H27.6581L27.6593 8.45433C27.6593 6.6524 26.5404 5.8833 24.7832 5.8833ZM24.5056 12.6935C23.5799 12.6935 23.07 12.2258 23.07 11.545V11.5294C23.07 10.976 23.3305 10.4213 24.4298 10.3316L26.3973 10.1679V10.6304C26.3973 11.9075 25.7126 12.6935 24.5056 12.6935Z" fill="#131313"/>
<path d="M37.3925 12.321C36.6514 12.321 36.3482 12.0248 36.3482 11.335V7.50767H38.0822V5.98895H36.3482V4.34424H34.3231V5.98895H33.3853V7.50767H34.3231V11.5506C34.3231 13.1681 35.0948 13.9086 36.8593 13.9086C37.2409 13.9086 37.6456 13.8696 38.1299 13.7852V12.2405C37.8559 12.2925 37.6077 12.321 37.3925 12.321Z" fill="#131313"/>
<path d="M44.0142 11.1322C43.8858 11.8779 43.4187 12.3456 42.5823 12.3456C41.7496 12.3456 41.0917 11.8259 40.9462 10.4761L45.8754 10.4748L45.8741 9.99151C45.8656 7.03334 44.4031 5.8667 42.4502 5.8667C40.3286 5.8667 38.8013 7.21132 38.8013 9.8512V9.8668C38.8013 12.3729 40.221 13.9059 42.5113 13.9059C44.5559 13.9059 45.67 12.7691 45.8204 11.2036L45.8302 11.0958H44.0203L44.0142 11.1322ZM42.4331 7.414C43.2426 7.414 43.8455 7.94145 43.9103 9.0925H40.9621C41.121 7.89987 41.6725 7.414 42.4331 7.414Z" fill="#131313"/>
<path d="M53.7771 13.7861L51.5846 9.86139L53.6989 5.99121H51.5002L50.0829 8.73633L48.6656 5.99121H46.4364L48.5262 9.76525L46.3398 13.7861H48.5507L50.0206 10.9449L51.5381 13.7861H53.7771Z" fill="#131313"/>
<path d="M58.0385 12.321C57.2974 12.321 56.9942 12.0248 56.9942 11.335V7.50767H58.7282V5.98895H56.9942V4.34424H54.9692V5.98895H54.0312V7.50767H54.9692V11.5506C54.9692 13.1681 55.7408 13.9086 57.5053 13.9086C57.8869 13.9086 58.2916 13.8696 58.7759 13.7852V12.2405C58.5019 12.2925 58.2537 12.321 58.0385 12.321Z" fill="#131313"/>
</svg>
