<svg width="43" height="42" viewBox="0 0 43 42" fill="none" xmlns="http://www.w3.org/2000/svg">
<path d="M41.5 21C41.5 23.6264 40.9827 26.2272 39.9776 28.6537C38.9725 31.0802 37.4993 33.285 35.6421 35.1421C33.785 36.9993 31.5802 38.4725 29.1537 39.4776C26.7272 40.4827 24.1264 41 21.5 41C18.8736 41 16.2728 40.4827 13.8463 39.4776C11.4198 38.4725 9.21504 36.9993 7.35786 35.1421C5.50069 33.285 4.0275 31.0802 3.02241 28.6537C2.01731 26.2272 1.5 23.6264 1.5 21C1.5 18.3736 2.01732 15.7728 3.02241 13.3463C4.0275 10.9198 5.50069 8.71503 7.35787 6.85786C9.21504 5.00069 11.4198 3.5275 13.8463 2.52241C16.2728 1.51731 18.8736 1 21.5 1C24.1264 1 26.7272 1.51732 29.1537 2.52241C31.5802 3.5275 33.785 5.00069 35.6421 6.85787C37.4993 8.71504 38.9725 10.9198 39.9776 13.3463C40.9827 15.7728 41.5 18.3736 41.5 21L41.5 21Z" stroke="#26DEE3" stroke-width="2" stroke-dasharray="8 8"/>
<path d="M36.5 21C36.5 22.9698 36.112 24.9204 35.3582 26.7403C34.6044 28.5601 33.4995 30.2137 32.1066 31.6066C30.7137 32.9995 29.0601 34.1044 27.2403 34.8582C25.4204 35.612 23.4698 36 21.5 36C19.5302 36 17.5796 35.612 15.7597 34.8582C13.9399 34.1044 12.2863 32.9995 10.8934 31.6066C9.50052 30.2137 8.39563 28.5601 7.64181 26.7403C6.88799 24.9204 6.5 22.9698 6.5 21C6.5 19.0302 6.88799 17.0796 7.64181 15.2597C8.39563 13.4399 9.50052 11.7863 10.8934 10.3934C12.2863 9.00052 13.9399 7.89563 15.7598 7.14181C17.5796 6.38799 19.5302 6 21.5 6C23.4698 6 25.4204 6.38799 27.2403 7.14181C29.0601 7.89563 30.7137 9.00052 32.1066 10.3934C33.4995 11.7863 34.6044 13.4399 35.3582 15.2598C36.112 17.0796 36.5 19.0302 36.5 21L36.5 21Z" stroke="#0066FF" stroke-width="2"/>
<path d="M27.2742 26.7403C27.5883 24.9204 27.75 22.9698 27.75 21C27.75 19.0302 27.5883 17.0796 27.2742 15.2598C26.9602 13.4399 26.4998 11.7863 25.9194 10.3934C25.3391 9.00052 24.6501 7.89563 23.8918 7.14181C23.1335 6.38799 22.3208 6 21.5 6C20.6792 6 19.8665 6.38799 19.1082 7.14181C18.3499 7.89563 17.6609 9.00052 17.0806 10.3934C16.5002 11.7863 16.0398 13.4399 15.7258 15.2597C15.4117 17.0796 15.25 19.0302 15.25 21C15.25 22.9698 15.4117 24.9204 15.7258 26.7403C16.0398 28.5601 16.5002 30.2137 17.0806 31.6066C17.6609 32.9995 18.3499 34.1044 19.1082 34.8582C19.8665 35.612 20.6792 36 21.5 36C22.3208 36 23.1335 35.612 23.8918 34.8582C24.6501 34.1044 25.339 32.9995 25.9194 31.6066C26.4998 30.2137 26.9602 28.5601 27.2742 26.7403Z" stroke="#0066FF" stroke-width="2"/>
<path d="M8.0625 27.875H34.3125" stroke="#0066FF" stroke-width="2" stroke-linecap="round"/>
<path d="M8.0625 15.375H34.3125" stroke="#0066FF" stroke-width="2" stroke-linecap="round"/>
</svg>
