<svg width="16" height="17" viewBox="0 0 16 17" fill="none" xmlns="http://www.w3.org/2000/svg">
<g id="logout 1" clip-path="url(#clip0_246_485)">
<path id="Vector" d="M15.4997 7.56442H9.16649C8.8905 7.56442 8.6665 7.34043 8.6665 7.06444C8.6665 6.78845 8.8905 6.56445 9.16649 6.56445H15.4997C15.7757 6.56445 15.9996 6.78845 15.9996 7.06444C15.9996 7.34043 15.7757 7.56442 15.4997 7.56442Z" fill="black"/>
<path id="Vector_2" d="M12.9994 10.0645C12.8713 10.0645 12.7434 10.0158 12.646 9.91788C12.4507 9.72245 12.4507 9.40581 12.646 9.2105L14.7927 7.06396L12.646 4.9173C12.4507 4.72199 12.4507 4.40535 12.646 4.21005C12.8414 4.01462 13.1581 4.01462 13.3534 4.21005L15.8533 6.70997C16.0486 6.90528 16.0486 7.22192 15.8533 7.41722L13.3534 9.91715C13.2553 10.0158 13.1274 10.0645 12.9994 10.0645Z" fill="black"/>
<path id="Vector_3" d="M5.33321 16.0649C5.19051 16.0649 5.05514 16.0449 4.91989 16.0029L0.90793 14.6663C0.362049 14.4756 0 13.967 0 13.3984V1.39876C0 0.663433 0.598004 0.0654297 1.33333 0.0654297C1.47591 0.0654297 1.61128 0.0854486 1.74665 0.127439L5.75849 1.46407C6.30449 1.65474 6.66642 2.16339 6.66642 2.73197V14.7316C6.66642 15.4669 6.06854 16.0649 5.33321 16.0649ZM1.33333 1.0654C1.14999 1.0654 0.999969 1.21542 0.999969 1.39876V13.3984C0.999969 13.5403 1.0953 13.6723 1.23128 13.7197L5.22445 15.0503C5.25313 15.0596 5.29048 15.065 5.33321 15.065C5.51655 15.065 5.66645 14.9149 5.66645 14.7316V2.73197C5.66645 2.59001 5.57111 2.45806 5.43513 2.41069L1.44197 1.08005C1.41329 1.07077 1.37593 1.0654 1.33333 1.0654Z" fill="black"/>
<path id="Vector_4" d="M10.1665 5.39864C9.89046 5.39864 9.66647 5.17464 9.66647 4.89865V1.89875C9.66647 1.43941 9.29258 1.0654 8.83325 1.0654H1.33348C1.05749 1.0654 0.833496 0.841406 0.833496 0.565414C0.833496 0.289422 1.05749 0.0654297 1.33348 0.0654297H8.83325C9.84457 0.0654297 10.6664 0.887425 10.6664 1.89875V4.89865C10.6664 5.17464 10.4424 5.39864 10.1665 5.39864Z" fill="black"/>
<path id="Vector_5" d="M8.83315 14.0647H6.16649C5.8905 14.0647 5.6665 13.8407 5.6665 13.5647C5.6665 13.2887 5.8905 13.0647 6.16649 13.0647H8.83315C9.29249 13.0647 9.66638 12.6907 9.66638 12.2313V9.23143C9.66638 8.95544 9.89037 8.73145 10.1664 8.73145C10.4424 8.73145 10.6663 8.95544 10.6663 9.23143V12.2313C10.6663 13.2427 9.84447 14.0647 8.83315 14.0647Z" fill="black"/>
</g>
<defs>
<clipPath id="clip0_246_485">
<rect width="16" height="16" fill="white" transform="translate(0 0.0644531)"/>
</clipPath>
</defs>
</svg>
