<svg width="16" height="17" viewBox="0 0 16 17" fill="none" xmlns="http://www.w3.org/2000/svg">
<g clip-path="url(#clip0_246_428)">
<path fill-rule="evenodd" clip-rule="evenodd" d="M8.87852 13.1317V13.3397C8.87852 13.4635 8.77836 13.5637 8.65452 13.5637C8.53068 13.5637 8.43052 13.4635 8.43052 13.3397V13.1317C8.29228 13.0929 8.16844 13.019 8.06988 12.9201C7.92012 12.7704 7.82764 12.5637 7.82764 12.3355C7.82764 12.2117 7.9278 12.1115 8.05164 12.1115C8.17548 12.1115 8.27564 12.2117 8.27564 12.3355C8.27564 12.4401 8.3182 12.5349 8.38668 12.6033C8.45516 12.6718 8.54988 12.7144 8.65452 12.7144C8.75916 12.7144 8.85388 12.6718 8.92236 12.6033C8.99084 12.5349 9.0334 12.4401 9.0334 12.3355C9.0334 12.0529 8.81804 12.0017 8.603 11.9505C8.21548 11.8584 7.82764 11.7659 7.82764 11.1297C7.82764 10.9013 7.92012 10.6945 8.06988 10.5451C8.16876 10.4462 8.29228 10.3723 8.43052 10.3336V10.1256C8.43052 10.0017 8.53068 9.90157 8.65452 9.90157C8.77836 9.90157 8.87852 10.0017 8.87852 10.1256V10.3336C9.01676 10.3723 9.1406 10.4462 9.23916 10.5451C9.38892 10.6949 9.4814 10.9016 9.4814 11.1297C9.4814 11.2536 9.38124 11.3537 9.2574 11.3537C9.13356 11.3537 9.0334 11.2536 9.0334 11.1297C9.0334 11.0251 8.99084 10.9304 8.92236 10.8619C8.85388 10.7934 8.75916 10.7509 8.65452 10.7509C8.54988 10.7509 8.45516 10.7934 8.38668 10.8619C8.3182 10.9304 8.27564 11.0251 8.27564 11.1297C8.27564 11.4123 8.491 11.4635 8.70604 11.5147C9.09356 11.6069 9.4814 11.6993 9.4814 12.3355C9.4814 12.564 9.38892 12.7707 9.23916 12.9201C9.14028 13.019 9.01676 13.0929 8.87852 13.1317ZM8.65452 14.3326C9.37228 14.3326 10.0225 14.0417 10.4929 13.571C10.9633 13.1006 11.2545 12.4507 11.2545 11.7326C11.2545 11.0149 10.9636 10.3646 10.4929 9.89421C10.0225 9.42381 9.3726 9.13261 8.65452 9.13261C7.93676 9.13261 7.28652 9.42349 6.81612 9.89421C6.34572 10.3646 6.05452 11.0145 6.05452 11.7326C6.05452 12.4504 6.3454 13.1006 6.81612 13.571C7.28684 14.0414 7.93644 14.3326 8.65452 14.3326ZM7.13292 13.2542C7.52236 13.6437 8.06028 13.8846 8.65452 13.8846C9.24876 13.8846 9.78668 13.6437 10.1761 13.2542C10.5656 12.8648 10.8065 12.3269 10.8065 11.7326C10.8065 11.1384 10.5656 10.6005 10.1761 10.211C9.78668 9.82157 9.24876 9.58061 8.65452 9.58061C8.06028 9.58061 7.52236 9.82157 7.13292 10.211C6.74348 10.6005 6.50252 11.1384 6.50252 11.7326C6.50252 12.3269 6.74348 12.8648 7.13292 13.2542ZM8.65452 15.051C9.571 15.051 10.4004 14.6795 11.0011 14.0792C11.6017 13.4785 11.9729 12.6491 11.9729 11.7326C11.9729 10.8161 11.6014 9.98669 11.0011 9.38605C10.4004 8.78541 9.571 8.41389 8.65452 8.41389C7.73804 8.41389 6.9086 8.78541 6.30796 9.38573C5.70732 9.98637 5.33612 10.8158 5.33612 11.7323C5.33612 12.6488 5.70764 13.4782 6.30796 14.0789C6.90828 14.6798 7.73804 15.051 8.65452 15.051ZM6.62476 13.7624C7.14412 14.2817 7.86188 14.603 8.65452 14.603C9.44716 14.603 10.1649 14.2817 10.6843 13.7624C11.2036 13.243 11.5249 12.5253 11.5249 11.7326C11.5249 10.94 11.2036 10.2222 10.6843 9.70285C10.1649 9.18349 9.44716 8.86221 8.65452 8.86221C7.86188 8.86221 7.14412 9.18349 6.62476 9.70285C6.1054 10.2222 5.78412 10.94 5.78412 11.7326C5.7838 12.5253 6.10508 13.243 6.62476 13.7624ZM3.4238 4.52045C3.29996 4.52045 3.1998 4.42029 3.1998 4.29645C3.1998 4.17261 3.29996 4.07245 3.4238 4.07245H8.10284C8.22668 4.07245 8.32684 4.17261 8.32684 4.29645C8.32684 4.42029 8.22668 4.52045 8.10284 4.52045H3.4238ZM3.4238 6.35309C3.29996 6.35309 3.1998 6.25293 3.1998 6.12909C3.1998 6.00525 3.29996 5.90509 3.4238 5.90509H10.7284C10.8523 5.90509 10.9524 6.00525 10.9524 6.12909C10.9524 6.25293 10.8523 6.35309 10.7284 6.35309H3.4238ZM3.4238 7.56077C3.29996 7.56077 3.1998 7.46061 3.1998 7.33677C3.1998 7.21293 3.29996 7.11277 3.4238 7.11277H10.7284C10.8523 7.11277 10.9524 7.21293 10.9524 7.33677C10.9524 7.46061 10.8523 7.56077 10.7284 7.56077H3.4238ZM3.4238 8.76877C3.29996 8.76877 3.1998 8.66861 3.1998 8.54477C3.1998 8.42093 3.29996 8.32077 3.4238 8.32077H4.69676C4.8206 8.32077 4.92076 8.42093 4.92076 8.54477C4.92076 8.66861 4.8206 8.76877 4.69676 8.76877H3.4238ZM3.4238 10.0984C3.29996 10.0984 3.1998 9.99821 3.1998 9.87437C3.1998 9.75053 3.29996 9.65037 3.4238 9.65037H4.69676C4.8206 9.65037 4.92076 9.75053 4.92076 9.87437C4.92076 9.99821 4.8206 10.0984 4.69676 10.0984H3.4238ZM3.4238 13.6833C3.29996 13.6833 3.1998 13.5832 3.1998 13.4593C3.1998 13.3355 3.29996 13.2353 3.4238 13.2353H4.69676C4.8206 13.2353 4.92076 13.3355 4.92076 13.4593C4.92076 13.5832 4.8206 13.6833 4.69676 13.6833H3.4238ZM10.7505 2.70957V3.57293C10.7505 3.75853 10.8264 3.92685 10.9483 4.04909C11.0705 4.17133 11.2388 4.24685 11.4244 4.24685H12.2878L10.7505 2.70957ZM12.6046 4.69485H11.4244C11.1153 4.69485 10.8347 4.56877 10.6315 4.36557C10.4283 4.16237 10.3022 3.88173 10.3022 3.57261V2.39277H3.17164H2.5822C2.3966 2.39277 2.22828 2.46861 2.10604 2.59053C1.9838 2.71277 1.90828 2.88109 1.90828 3.06669V14.9425C1.90828 15.1281 1.98412 15.2965 2.10604 15.4187C2.22828 15.5409 2.3966 15.6165 2.5822 15.6165H11.9307C12.1163 15.6165 12.2846 15.5406 12.4068 15.4187C12.5291 15.2965 12.6046 15.1281 12.6046 14.9425V13.9601V4.69485ZM11.9307 16.0645C12.2398 16.0645 12.5204 15.9384 12.7236 15.7352C12.9268 15.532 13.0529 15.2513 13.0529 14.9422V14.1838H13.4184C13.7275 14.1838 14.0081 14.0577 14.2113 13.8545C14.4145 13.6513 14.5406 13.3707 14.5406 13.0616V2.59053C14.5406 2.52813 14.515 2.47149 14.4737 2.43085L12.1729 0.130053C12.1288 0.0862131 12.0712 0.0644531 12.0139 0.0644531H4.06956C3.76044 0.0644531 3.4798 0.190533 3.2766 0.393733C3.0734 0.596933 2.94732 0.877573 2.94732 1.18669V1.94509H2.5822C2.27308 1.94509 1.99244 2.07117 1.78924 2.27437C1.58604 2.47757 1.45996 2.75821 1.45996 3.06733V14.9432C1.45996 15.2523 1.58604 15.5329 1.78924 15.7361C1.99244 15.9393 2.27308 16.0645 2.5822 16.0645H11.9307ZM3.39564 1.94477H10.5265C10.5838 1.94477 10.6411 1.96653 10.6849 2.01037L12.9857 4.31117C13.027 4.35181 13.0526 4.40845 13.0526 4.47085V13.7361H13.418C13.6036 13.7361 13.772 13.6603 13.8942 13.5384C14.0164 13.4161 14.092 13.2478 14.092 13.0622V2.81453H12.9121C12.603 2.81453 12.3224 2.68845 12.1192 2.48525C11.916 2.28205 11.7899 2.00141 11.7899 1.69229V0.512453H4.06956C3.88396 0.512453 3.71564 0.588293 3.5934 0.710213C3.47116 0.832453 3.39564 1.00077 3.39564 1.18637V1.94477ZM12.2379 0.829253L13.7752 2.36653H12.9121C12.7265 2.36653 12.5582 2.29069 12.436 2.16877C12.3137 2.04653 12.2382 1.87821 12.2382 1.69261V0.829253H12.2379Z" fill="#131313"/>
</g>
<defs>
<clipPath id="clip0_246_428">
<rect width="16" height="16" fill="white" transform="translate(0 0.0644531)"/>
</clipPath>
</defs>
</svg>
