<svg width="65" height="20" viewBox="0 0 65 20" fill="none" xmlns="http://www.w3.org/2000/svg">
<path fill-rule="evenodd" clip-rule="evenodd" d="M31.2009 4.67993C32.7926 4.67993 34.2026 5.47977 35.0887 6.74027V0H36.9016V15.0002H35.0887V13.2598C34.2026 14.5227 32.7926 15.3201 31.2009 15.3201C28.2197 15.3201 25.702 12.9802 25.702 10.0003C25.702 7.02052 28.2197 4.67993 31.2009 4.67993ZM31.2009 13.7199C33.5576 13.7199 35.0887 12.14 35.0887 10.0003C35.0887 7.86065 33.5576 6.28021 31.2009 6.28021C29.1065 6.28021 27.5147 7.78002 27.5147 10.0003C27.5147 12.2206 29.1065 13.7199 31.2009 13.7199ZM22.6808 6.74021C21.7946 5.47972 20.3846 4.67988 18.7935 4.67988C15.8117 4.67988 13.294 7.02046 13.294 10.0003C13.294 12.9801 15.8117 15.3201 18.7935 15.3201C20.3646 15.3201 21.7723 14.5227 22.6808 13.2598V15.0002H24.4936V4.99982H22.6808V6.74021ZM22.6808 10.0003C22.6808 12.1202 21.1296 13.7198 18.7935 13.7198C16.6985 13.7198 15.1067 12.2206 15.1067 10.0003C15.1067 7.78002 16.6985 6.28014 18.7935 6.28014C21.1502 6.28014 22.6808 7.85996 22.6808 10.0003ZM0 9.73866V10.2799C0.330927 10.28 0.658596 10.3448 0.964265 10.4707C1.26994 10.5966 1.54764 10.7811 1.78147 11.0136C2.01529 11.2461 2.20068 11.5221 2.32703 11.8258C2.45338 12.1295 2.5182 12.4549 2.51781 12.7835H3.02173C3.02189 12.1205 3.28721 11.4847 3.75936 11.0159C4.2315 10.5471 4.87182 10.2837 5.53954 10.2835V9.74228C5.20861 9.74222 4.88094 9.67734 4.57526 9.55147C4.26959 9.42559 3.9919 9.24115 3.75807 9.00859C3.52424 8.77609 3.33885 8.50015 3.2125 8.19646C3.08616 7.89277 3.02133 7.56734 3.02173 7.23877H2.51781C2.51765 7.90171 2.25233 8.53746 1.78018 9.00628C1.30804 9.47509 0.667714 9.73853 0 9.73866ZM6.8484 6.30002H2.51781V4.69972H6.8484C9.89009 4.69972 12.2874 7.08059 12.2874 10.0003C12.2874 12.92 9.89009 15.3002 6.8484 15.3002H4.3306V20H2.51781V13.7H6.8484C8.96403 13.7 10.4746 12.2007 10.4746 10.0003C10.4746 7.79984 8.96346 6.30002 6.8484 6.30002ZM47.6992 6.74027C46.8125 5.47977 45.4025 4.67993 43.8114 4.67993C40.8302 4.67993 38.3124 7.02052 38.3124 10.0003C38.3124 12.9802 40.8302 15.3201 43.8114 15.3201C45.4025 15.3201 46.8125 14.5227 47.6992 13.2598V15.0002H49.512V0H47.6992V6.74027ZM47.6992 10.0003C47.6992 12.14 46.1681 13.7199 43.8114 13.7199C41.7163 13.7199 40.1252 12.2206 40.1252 10.0003C40.1252 7.78002 41.7163 6.28021 43.8114 6.28021C46.1681 6.28021 47.6992 7.86065 47.6992 10.0003ZM51.3227 15.0002V0H53.1361V15.0002H51.3227ZM65.0008 10.7009C65.0008 7.40052 63.3289 4.70033 59.8447 4.70033C56.803 4.70033 54.4464 7.12146 54.4464 10.0009C54.4464 12.8803 56.803 15.3009 59.8447 15.3009C62.262 15.3009 64.0539 13.7805 64.7389 12.2404H62.7852C62.0603 13.3404 61.0937 13.9009 59.8447 13.9009C58.0319 13.9009 56.5814 12.6404 56.2997 10.7009H65.0008ZM59.8447 6.10034C61.7781 6.10034 63.1883 7.66034 63.1883 9.3009H56.2997C56.5814 7.36321 58.0319 6.10034 59.8447 6.10034Z" fill="#0E1414"/>
</svg>
