<svg width="16" height="17" viewBox="0 0 16 17" fill="none" xmlns="http://www.w3.org/2000/svg">
<circle cx="8" cy="8.06445" r="8" fill="#DEEDFF"/>
<path d="M13.125 9.28439V9.00977H10.6902V9.28439H13.125Z" fill="#3C81D5"/>
<path d="M13.125 8.23263V7.95801H12.6381V8.23263H13.125Z" fill="#3C81D5"/>
<path d="M12.8665 9.15723H13.125V7.98585H12.8665V9.15723Z" fill="#3C81D5"/>
<path d="M11.1693 9.68872L10.7886 9.00999L10.4326 9.00977L10.7987 9.69344L11.1693 9.68872Z" fill="#3C81D5"/>
<path d="M7.99579 6.43555H7.7373V9.18142H7.99579V6.43555Z" fill="#3C81D5"/>
<path d="M3.08051 6.9043H2.875L2.87519 7.13406H3.08051V6.9043ZM3.08051 7.41206H2.875V8.68148H3.08051V7.41206Z" fill="#131313"/>
<path d="M3.90875 7.39453C3.75203 7.39453 3.6184 7.46118 3.53496 7.59108V7.4123H3.36768V8.68172H3.5732V8.05209L3.57339 7.96112C3.57339 7.70216 3.70701 7.58748 3.89759 7.58748C4.05253 7.58748 4.13975 7.67783 4.13975 7.85808V8.68172H4.34526V7.8456C4.34526 7.53628 4.16465 7.39453 3.90875 7.39453Z" fill="#131313"/>
<path d="M5.49284 7.79694V7.78425C5.49284 7.55554 5.32476 7.39453 5.02724 7.39453C4.75521 7.39453 4.56763 7.52994 4.56763 7.75293V7.75547C4.56763 8.2772 5.30643 8.01126 5.30643 8.3265V8.32904C5.30643 8.44688 5.19432 8.50654 5.04078 8.50654C4.86534 8.50654 4.74565 8.42911 4.74565 8.2791V8.27657L4.55029 8.27635V8.28651C4.55029 8.52199 4.71021 8.69949 5.04078 8.69949C5.33053 8.69949 5.5239 8.55838 5.5239 8.31634V8.3138C5.5239 7.80159 4.78628 8.05188 4.78628 7.75547V7.75293C4.78628 7.66449 4.84742 7.58748 5.02724 7.58748C5.19631 7.58748 5.29767 7.63805 5.29767 7.7944V7.79694H5.49284Z" fill="#131313"/>
<path d="M6.16835 8.50499C6.03373 8.50499 5.97777 8.45316 5.97777 8.32368V7.60857H6.28105V7.41308H5.97777V7.15137H5.77225V7.41308H5.61572V7.60857H5.77225V8.34885C5.77225 8.58687 5.88775 8.70027 6.12792 8.70027C6.17751 8.70027 6.23246 8.69541 6.293 8.68588V8.49187C6.2466 8.50055 6.20499 8.50499 6.16835 8.50499Z" fill="#131313"/>
<path d="M6.91113 7.39453C6.62416 7.39453 6.45589 7.54327 6.45589 7.80498V7.81746H6.64766V7.80498C6.64766 7.67084 6.74484 7.58748 6.91113 7.58748C7.07661 7.58748 7.17399 7.64567 7.17399 7.81302V7.92261L6.84063 7.95138C6.5463 7.97677 6.41406 8.098 6.41406 8.3339V8.33644C6.41406 8.54569 6.57618 8.69949 6.82172 8.69949C7.00234 8.69949 7.12461 8.63116 7.1967 8.51903V8.68172H7.37931L7.3795 7.81323C7.3795 7.51978 7.19729 7.39453 6.91113 7.39453ZM6.86592 8.50358C6.71517 8.50358 6.63213 8.42742 6.63213 8.31655V8.31402C6.63213 8.22389 6.67455 8.13355 6.85357 8.11895L7.17399 8.09229V8.16761C7.17399 8.37558 7.06248 8.50358 6.86592 8.50358Z" fill="#131313"/>
<path d="M8.96459 8.44259C8.84391 8.44259 8.79453 8.39436 8.79453 8.28201V7.65873H9.07691V7.4114H8.79453V7.14355H8.46475V7.4114H8.31201V7.65873H8.46475V8.31713C8.46475 8.58054 8.59041 8.70113 8.87777 8.70113C8.93991 8.70113 9.00582 8.69478 9.08468 8.68103V8.42948C9.04007 8.43794 8.99964 8.44259 8.96459 8.44259Z" fill="#131313"/>
<path d="M10.0428 8.2491C10.0219 8.37054 9.94581 8.4467 9.8096 8.4467C9.67399 8.4467 9.56685 8.36207 9.54315 8.14225L10.3459 8.14204L10.3457 8.06334C10.3443 7.58159 10.1061 7.3916 9.78809 7.3916C9.44258 7.3916 9.19385 7.61058 9.19385 8.04049V8.04303C9.19385 8.45115 9.42505 8.7008 9.79804 8.7008C10.131 8.7008 10.3124 8.51567 10.3369 8.26073L10.3385 8.24317H10.0438L10.0428 8.2491ZM9.7853 7.64358C9.91714 7.64358 10.0153 7.72948 10.0259 7.91693H9.54574C9.57162 7.72271 9.66144 7.64358 9.7853 7.64358Z" fill="#131313"/>
<path d="M11.6326 8.68251L11.2755 8.04335L11.6198 7.41309H11.2618L11.031 7.86013L10.8001 7.41309H10.4371L10.7774 8.0277L10.4214 8.68251H10.7814L11.0208 8.2198L11.2679 8.68251H11.6326Z" fill="#131313"/>
<path d="M12.3269 8.44259C12.2062 8.44259 12.1568 8.39436 12.1568 8.28201V7.65873H12.4392V7.4114H12.1568V7.14355H11.8271V7.4114H11.6743V7.65873H11.8271V8.31713C11.8271 8.58054 11.9527 8.70113 12.2401 8.70113C12.3022 8.70113 12.3681 8.69478 12.447 8.68103V8.42948C12.4024 8.43794 12.3619 8.44259 12.3269 8.44259Z" fill="#131313"/>
</svg>
