<svg width="21" height="20" viewBox="0 0 21 20" fill="none" xmlns="http://www.w3.org/2000/svg">
<path d="M7.58333 8.74995C7.58333 9.43933 7.02271 9.99996 6.33333 9.99996V10.625C6.33333 10.855 6.14667 11.0416 5.91667 11.0416C5.68667 11.0416 5.5 10.855 5.5 10.625V9.99996H4.875C4.645 9.99996 4.45833 9.81329 4.45833 9.58329C4.45833 9.35329 4.645 9.16662 4.875 9.16662H6.33333C6.56312 9.16662 6.75 8.97975 6.75 8.74995C6.75 8.52016 6.56312 8.33329 6.33333 8.33329H5.5C4.81062 8.33329 4.25 7.77266 4.25 7.08329C4.25 6.39391 4.81062 5.83329 5.5 5.83329V5.20829C5.5 4.97829 5.68667 4.79162 5.91667 4.79162C6.14667 4.79162 6.33333 4.97829 6.33333 5.20829V5.83329H6.95833C7.18833 5.83329 7.375 6.01996 7.375 6.24996C7.375 6.47996 7.18833 6.66662 6.95833 6.66662H5.5C5.27021 6.66662 5.08333 6.8535 5.08333 7.08329C5.08333 7.31308 5.27021 7.49996 5.5 7.49996H6.33333C7.02271 7.49996 7.58333 8.06058 7.58333 8.74995ZM12.5833 6.24996C12.5833 6.01996 12.3967 5.83329 12.1667 5.83329H9.45833C9.22833 5.83329 9.04167 6.01996 9.04167 6.24996C9.04167 6.47996 9.22833 6.66662 9.45833 6.66662H12.1667C12.3967 6.66662 12.5833 6.47996 12.5833 6.24996ZM12.5833 7.91662C12.5833 7.68662 12.3967 7.49996 12.1667 7.49996H9.45833C9.22833 7.49996 9.04167 7.68662 9.04167 7.91662C9.04167 8.14662 9.22833 8.33329 9.45833 8.33329H12.1667C12.3967 8.33329 12.5833 8.14662 12.5833 7.91662ZM12.5833 9.58329C12.5833 9.35329 12.3967 9.16662 12.1667 9.16662H9.45833C9.22833 9.16662 9.04167 9.35329 9.04167 9.58329C9.04167 9.81329 9.22833 9.99996 9.45833 9.99996H12.1667C12.3967 9.99996 12.5833 9.81329 12.5833 9.58329ZM12.5833 12.2916C12.5833 12.0616 12.3967 11.875 12.1667 11.875H4.66667C4.43667 11.875 4.25 12.0616 4.25 12.2916C4.25 12.5216 4.43667 12.7083 4.66667 12.7083H12.1667C12.3967 12.7083 12.5833 12.5216 12.5833 12.2916ZM12.5833 13.9583C12.5833 13.7283 12.3967 13.5416 12.1667 13.5416H4.66667C4.43667 13.5416 4.25 13.7283 4.25 13.9583C4.25 14.1883 4.43667 14.375 4.66667 14.375H12.1667C12.3967 14.375 12.5833 14.1883 12.5833 13.9583ZM12.5833 15.625C12.5833 15.395 12.3967 15.2083 12.1667 15.2083H4.66667C4.43667 15.2083 4.25 15.395 4.25 15.625C4.25 15.855 4.43667 16.0416 4.66667 16.0416H12.1667C12.3967 16.0416 12.5833 15.855 12.5833 15.625ZM19.25 10.625V16.0416C19.25 17.4202 18.1285 18.5416 16.75 18.5416H4.25C2.87146 18.5416 1.75 17.4202 1.75 16.0416V1.87496C1.75 1.72141 1.83458 1.58016 1.97021 1.50746C2.10521 1.43475 2.26979 1.44266 2.39792 1.52829L3.41667 2.20766L4.43563 1.52829C4.57563 1.43516 4.75792 1.43516 4.89792 1.52829L5.91667 2.20766L6.93563 1.52829C7.07562 1.43516 7.25792 1.43516 7.39792 1.52829L8.41667 2.20766L9.43562 1.52829C9.57562 1.43516 9.75792 1.43516 9.89792 1.52829L10.9167 2.20766L11.9356 1.52829C12.0756 1.43516 12.2579 1.43516 12.3979 1.52829L13.4167 2.20766L14.4356 1.52829C14.5633 1.44329 14.7281 1.43496 14.8633 1.50746C14.9987 1.58016 15.0833 1.72141 15.0833 1.87496V10.2083H18.8333C19.0633 10.2083 19.25 10.395 19.25 10.625ZM4.25 17.7083H14.8919C14.4942 17.2654 14.25 16.6822 14.25 16.0416V10.8333V10.625V2.6535L13.6477 3.05496C13.5077 3.14808 13.3254 3.14808 13.1854 3.05496L12.1667 2.37558L11.1477 3.05496C11.0077 3.14808 10.8254 3.14808 10.6854 3.05496L9.66667 2.37558L8.64771 3.05496C8.50771 3.14808 8.32542 3.14808 8.18542 3.05496L7.16667 2.37558L6.14771 3.05496C6.00771 3.14808 5.82542 3.14808 5.68542 3.05496L4.66667 2.37558L3.64771 3.05496C3.50771 3.14808 3.32542 3.14808 3.18542 3.05496L2.58333 2.6535V16.0416C2.58333 16.9606 3.33104 17.7083 4.25 17.7083ZM18.4167 11.0416H15.0833V16.0416C15.0833 16.9606 15.831 17.7083 16.75 17.7083C17.669 17.7083 18.4167 16.9606 18.4167 16.0416V11.0416Z" fill="#131313"/>
</svg>
