<svg width="16" height="17" viewBox="0 0 16 17" fill="none" xmlns="http://www.w3.org/2000/svg">
<g id="Group 74">
<circle id="Ellipse 139" cx="8" cy="8.06445" r="8" fill="#E8F9F5"/>
<g id="Group 7">
<path id="Vector" fill-rule="evenodd" clip-rule="evenodd" d="M11.1749 8.18231C11.1749 10.0142 9.74772 11.4994 7.98734 11.4994C6.22697 11.4994 4.7998 10.0142 4.7998 8.18231C4.7998 6.35038 6.22697 4.86523 7.98734 4.86523C9.74772 4.86523 11.1749 6.35038 11.1749 8.18231Z" fill="#15C39A"/>
<path id="Vector_2" fill-rule="evenodd" clip-rule="evenodd" d="M8.40382 8.89833C8.42259 9.00685 8.5207 9.08129 8.62686 9.08129H8.96074L9.15428 9.05329C8.84453 9.52609 8.30683 9.74359 7.71884 9.64767C7.24014 9.56949 6.82893 9.23228 6.65529 8.76158C6.26151 7.69299 7.0113 6.67294 7.98859 6.67294C8.49791 6.67294 8.94443 6.98309 9.20054 7.35764C9.26848 7.45962 9.40346 7.49696 9.50157 7.42625C9.54614 7.39473 9.57757 7.34671 9.58952 7.29191C9.60147 7.2371 9.59304 7.1796 9.56593 7.13104C9.38441 6.83586 9.13018 6.59712 8.82988 6.43986C8.52959 6.2826 8.1943 6.21262 7.85919 6.23725C6.92727 6.30236 6.17301 7.09604 6.11938 8.06638C6.05725 9.19587 6.91788 10.1177 7.98859 10.1177C8.25556 10.1188 8.51962 10.0598 8.76276 9.94467C9.00589 9.82953 9.22237 9.66096 9.39743 9.45048L9.35675 9.68711V9.90088C9.35675 10.011 9.42827 10.1132 9.53263 10.1328C9.56379 10.139 9.59586 10.1379 9.62657 10.1296C9.65727 10.1213 9.68586 10.1061 9.7103 10.085C9.73474 10.0639 9.75444 10.0375 9.768 10.0076C9.78155 9.97763 9.78864 9.94495 9.78874 9.91184V8.63159H8.61613C8.58441 8.63154 8.55307 8.63879 8.52434 8.65284C8.49561 8.66688 8.4702 8.68737 8.44993 8.71285C8.42965 8.73832 8.41501 8.76815 8.40704 8.80021C8.39907 8.83227 8.39797 8.86578 8.40382 8.89833Z" fill="white"/>
</g>
</g>
</svg>
