<svg width="16" height="17" viewBox="0 0 16 17" fill="none" xmlns="http://www.w3.org/2000/svg">
<g clip-path="url(#clip0_246_415)">
<path d="M12.6854 2.16075H11.2379V1.51319C11.2379 1.30368 11.0094 1.20846 10.7999 1.20846H9.67618C9.40955 0.44661 8.74292 0.0656863 7.98107 0.0656863C7.22761 0.0373604 6.54228 0.499361 6.28596 1.20846H5.18129C4.97178 1.20846 4.76227 1.30368 4.76227 1.51319V2.16075H3.31473C2.45693 2.1699 1.75516 2.84659 1.71484 3.70347V14.6169C1.71484 15.4549 2.47669 16.0644 3.31473 16.0644H12.6854C13.5235 16.0644 14.2853 15.4549 14.2853 14.6169V3.70351C14.245 2.84659 13.5432 2.1699 12.6854 2.16075ZM5.52408 1.9703H6.57163C6.75449 1.94799 6.90137 1.80888 6.93352 1.62748C7.04632 1.13628 7.47726 0.783678 7.98107 0.770408C8.48022 0.785537 8.90468 1.13923 9.00956 1.62748C9.04372 1.81515 9.20029 1.95605 9.39048 1.9703H10.4761V3.494H5.52408V1.9703ZM13.5235 14.6169C13.5235 15.036 13.1045 15.3026 12.6854 15.3026H3.31473C2.89571 15.3026 2.47669 15.036 2.47669 14.6169V3.70351C2.51555 3.26736 2.8769 2.93062 3.31473 2.92263H4.76223V3.89399C4.78236 4.1074 4.96719 4.26704 5.18125 4.25588H10.7999C11.0179 4.2678 11.2085 4.11035 11.2379 3.89399V2.9226H12.6854C13.1232 2.93062 13.4846 3.26732 13.5234 3.70347V14.6169H13.5235Z" fill="#131313"/>
<path d="M6.53352 8.57969C6.39065 8.4291 6.15347 8.4206 6.00021 8.56066L4.78125 9.72246L4.26701 9.18916C4.12414 9.03856 3.88696 9.0301 3.7337 9.17013C3.58616 9.3247 3.58616 9.56789 3.7337 9.72246L4.51458 10.5224C4.58216 10.5981 4.67979 10.6399 4.78121 10.6367C4.88168 10.6353 4.97752 10.5942 5.04785 10.5224L6.53345 9.113C6.68073 8.9779 6.69057 8.74896 6.55543 8.60171C6.5485 8.59402 6.54117 8.58669 6.53352 8.57969Z" fill="#131313"/>
<path d="M11.9998 9.39844H7.6192C7.40882 9.39844 7.23828 9.56898 7.23828 9.77936C7.23828 9.98975 7.40882 10.1603 7.6192 10.1603H11.9998C12.2102 10.1603 12.3807 9.98975 12.3807 9.77936C12.3807 9.56898 12.2102 9.39844 11.9998 9.39844Z" fill="#131313"/>
<path d="M6.53352 5.53184C6.39065 5.38124 6.15347 5.37275 6.00021 5.51281L4.78125 6.67461L4.26701 6.14131C4.12414 5.99071 3.88696 5.98221 3.7337 6.12228C3.58616 6.27685 3.58616 6.52004 3.7337 6.67461L4.51458 7.47456C4.58216 7.55024 4.67979 7.59209 4.78121 7.58884C4.88168 7.58742 4.97752 7.54634 5.04785 7.47456L6.53345 6.06515C6.68073 5.93005 6.69057 5.70111 6.55543 5.55386C6.5485 5.54617 6.54117 5.53884 6.53352 5.53184Z" fill="#131313"/>
<path d="M11.9998 6.35059H7.6192C7.40882 6.35059 7.23828 6.52113 7.23828 6.73151C7.23828 6.94189 7.40882 7.11243 7.6192 7.11243H11.9998C12.2102 7.11243 12.3807 6.94189 12.3807 6.73151C12.3807 6.52113 12.2102 6.35059 11.9998 6.35059Z" fill="#131313"/>
<path d="M6.53352 11.6266C6.39065 11.476 6.15347 11.4675 6.00021 11.6075L4.78125 12.7693L4.26701 12.236C4.12414 12.0854 3.88696 12.077 3.7337 12.217C3.58616 12.3716 3.58616 12.6148 3.7337 12.7693L4.51458 13.5693C4.58216 13.645 4.67979 13.6868 4.78121 13.6836C4.88168 13.6821 4.97752 13.6411 5.04785 13.5693L6.53345 12.1599C6.68073 12.0248 6.69057 11.7958 6.55543 11.6486C6.5485 11.6409 6.54117 11.6336 6.53352 11.6266Z" fill="#131313"/>
<path d="M11.9998 12.4453H7.6192C7.40882 12.4453 7.23828 12.6159 7.23828 12.8262C7.23828 13.0366 7.40882 13.2072 7.6192 13.2072H11.9998C12.2102 13.2072 12.3807 13.0366 12.3807 12.8262C12.3807 12.6159 12.2102 12.4453 11.9998 12.4453Z" fill="#131313"/>
</g>
<defs>
<clipPath id="clip0_246_415">
<rect width="16" height="16" fill="white" transform="translate(0 0.0644531)"/>
</clipPath>
</defs>
</svg>
