<svg width="20" height="20" viewBox="0 0 20 20" fill="none" xmlns="http://www.w3.org/2000/svg">
<g clip-path="url(#clip0_58_38395)">
<path d="M20.0002 9.99993L17.7361 7.4862L18.0906 4.12092L14.7799 3.42007L13.0911 0.486328L10.0002 1.86774L9.58301 9.99993L10.0002 18.1321L13.0911 19.5135L14.7799 16.5798L18.0906 15.8789L17.7361 12.5136L20.0002 9.99993Z" fill="#84B4FF"/>
<path d="M6.90906 0.486328L5.22032 3.42007L1.9096 4.12096L2.26409 7.4862L0 9.99993L2.26409 12.5136L1.9096 15.8789L5.22032 16.5798L6.9091 19.5135L10 18.1321V1.86774L6.90906 0.486328Z" fill="#CCE0FF"/>
<path d="M14.1924 7.8106L13.3171 7.0293L10.0002 10.7454L9.58301 11.6689L10.0002 12.5074L14.1924 7.8106Z" fill="white"/>
<path d="M6.51418 9.11621L5.68457 9.94586L9.17262 13.4339L9.99999 12.507V10.745L9.1242 11.7262L6.51418 9.11621Z" fill="white"/>
</g>
<defs>
<clipPath id="clip0_58_38395">
<rect width="20" height="20" fill="white"/>
</clipPath>
</defs>
</svg>
