<svg width="16" height="17" viewBox="0 0 16 17" fill="none" xmlns="http://www.w3.org/2000/svg">
<circle cx="8" cy="8.06445" r="8" fill="#DEFFFE"/>
<g clip-path="url(#clip0_239_3133)">
<path d="M4.23738 7.78069C4.39796 7.78069 4.50406 7.85081 4.54994 7.98855L4.89118 7.88838C4.85677 7.77318 4.78508 7.67551 4.67038 7.59537C4.55568 7.51523 4.40657 7.47266 4.22878 7.47266C4.02232 7.47266 3.8474 7.53526 3.70689 7.65798C3.56638 7.7832 3.49756 7.93846 3.49756 8.12629C3.49756 8.31412 3.56638 8.46939 3.70976 8.5946C3.85313 8.71982 4.02805 8.77993 4.24025 8.77993C4.41517 8.77993 4.56141 8.73986 4.67611 8.65721C4.79082 8.57707 4.86537 8.4794 4.89978 8.3642L4.56428 8.26653C4.54421 8.32413 4.50693 8.37422 4.45531 8.41429C4.40083 8.45436 4.32914 8.4744 4.24025 8.4744C4.13702 8.4744 4.05099 8.44434 3.98217 8.38173C3.91335 8.31913 3.87894 8.23398 3.87894 8.12629C3.87894 8.02111 3.91335 7.93596 3.98217 7.87335C4.05099 7.81325 4.13415 7.78069 4.23738 7.78069ZM5.70677 8.4769C5.6064 8.4769 5.52038 8.44685 5.45155 8.38424C5.38273 8.32413 5.34832 8.23648 5.34832 8.12629C5.34832 8.0161 5.38273 7.93095 5.45155 7.86834C5.52038 7.80824 5.6064 7.77568 5.70677 7.77568C5.80426 7.77568 5.89029 7.80824 5.95911 7.86834C6.02793 7.93095 6.06521 8.0161 6.06521 8.12629C6.06521 8.23648 6.02793 8.32413 5.95911 8.38424C5.89029 8.44685 5.80426 8.4769 5.70677 8.4769ZM5.70677 7.47266C5.49457 7.47266 5.31678 7.53526 5.17627 7.65798C5.03576 7.7832 4.96694 7.93846 4.96694 8.12629C4.96694 8.31662 5.03576 8.47189 5.17627 8.5946C5.31678 8.71982 5.49457 8.77993 5.70677 8.77993C5.91896 8.77993 6.09388 8.71982 6.23439 8.5946C6.3749 8.47189 6.44659 8.31662 6.44659 8.12629C6.44659 7.93846 6.3749 7.7832 6.23439 7.65798C6.09388 7.53526 5.91896 7.47266 5.70677 7.47266ZM7.03583 9.21819V8.62215C7.11899 8.72233 7.25376 8.77241 7.44302 8.77241C7.63801 8.77241 7.79859 8.71231 7.9219 8.5896C8.0452 8.46939 8.10829 8.31412 8.10829 8.12379C8.10829 7.93596 8.04807 7.7832 7.93337 7.66299C7.8158 7.54278 7.65809 7.48267 7.45736 7.48267C7.35413 7.48267 7.26523 7.5002 7.19068 7.53526C7.11325 7.57033 7.05877 7.6104 7.02436 7.66048V7.51022H6.65445V9.21819H7.03583ZM7.73264 8.12629C7.73264 8.23398 7.69823 8.31913 7.63228 8.38173C7.56632 8.44434 7.48317 8.4744 7.3828 8.4744C7.27957 8.4744 7.19641 8.44434 7.13046 8.37923C7.06164 8.31662 7.0301 8.23147 7.0301 8.12629C7.0301 8.02111 7.06164 7.93846 7.13046 7.87586C7.19641 7.81325 7.27957 7.78069 7.3828 7.78069C7.48317 7.78069 7.56632 7.81325 7.63228 7.87335C7.69823 7.93596 7.73264 8.02111 7.73264 8.12629ZM8.80454 9.2282L9.6906 7.51022H9.28341L8.93644 8.23147L8.5608 7.51022H8.13353L8.73285 8.58709L8.40021 9.2282H8.80454Z" fill="#160647"/>
<path d="M9.82373 8.51447C9.82373 8.585 9.85169 8.64198 9.90761 8.69081C9.96352 8.73965 10.0288 8.76135 10.1064 8.76135C10.1841 8.76135 10.2524 8.73965 10.3083 8.69081C10.3643 8.64198 10.3922 8.585 10.3922 8.51447C10.3922 8.44664 10.3643 8.38967 10.3083 8.34083C10.2524 8.292 10.1841 8.26758 10.1064 8.26758C10.0288 8.26758 9.96352 8.292 9.90761 8.34083C9.85169 8.38967 9.82373 8.44664 9.82373 8.51447Z" fill="#47BAB7"/>
<path d="M10.606 8.40703C10.606 8.50721 10.649 8.59486 10.7379 8.66748C10.8268 8.74261 10.9443 8.77768 11.0906 8.77768C11.277 8.77768 11.4146 8.71757 11.5064 8.59486C11.5064 8.65747 11.5092 8.70755 11.5207 8.74261H11.8705C11.8591 8.68752 11.8533 8.62241 11.8533 8.54727V7.94122C11.8533 7.80599 11.8017 7.69329 11.7042 7.60564C11.6039 7.51799 11.449 7.47291 11.2397 7.47291C11.0619 7.47291 10.9214 7.51548 10.8153 7.59562C10.7063 7.67827 10.6461 7.77343 10.6346 7.87861L10.973 7.94122C10.9787 7.88613 11.0045 7.83854 11.0504 7.79847C11.0963 7.76091 11.1623 7.74088 11.2425 7.74088C11.3171 7.74088 11.3773 7.7559 11.4175 7.78595C11.4576 7.81601 11.4806 7.85607 11.4806 7.90115C11.4806 7.95124 11.4433 7.98129 11.3745 7.98881L11.0275 8.03388C10.9013 8.05141 10.8009 8.09148 10.7235 8.15409C10.6432 8.21921 10.606 8.30185 10.606 8.40703ZM11.1709 8.52974C11.1135 8.52974 11.0676 8.51722 11.0361 8.48967C11.0017 8.46213 10.9873 8.42707 10.9873 8.387C10.9873 8.29934 11.0447 8.24675 11.1623 8.23173L11.4806 8.18915V8.24425C11.4806 8.34693 11.449 8.41955 11.3917 8.46463C11.3343 8.50971 11.2598 8.52974 11.1709 8.52974ZM12.5259 8.74261V7.51047H12.1446V8.74261H12.5259ZM12.0987 7.10728C12.0987 7.16237 12.1216 7.20995 12.1675 7.25002C12.2134 7.29009 12.2679 7.31013 12.3338 7.31013C12.3969 7.31013 12.4543 7.29009 12.5001 7.25002C12.546 7.20995 12.569 7.16237 12.569 7.10728C12.569 7.04968 12.546 6.99959 12.5001 6.95952C12.4543 6.91945 12.3969 6.89941 12.3338 6.89941C12.2679 6.89941 12.2134 6.92195 12.1675 6.96202C12.1216 7.00209 12.0987 7.05218 12.0987 7.10728Z" fill="#160248"/>
</g>
<defs>
<clipPath id="clip0_239_3133">
<rect width="9.2" height="2.4" fill="white" transform="translate(3.3999 6.86426)"/>
</clipPath>
</defs>
</svg>
