<svg width="12" height="13" viewBox="0 0 12 13" fill="none" xmlns="http://www.w3.org/2000/svg">
<g clip-path="url(#clip0_242_3973)">
<path fill-rule="evenodd" clip-rule="evenodd" d="M6 0.322266C2.83732 0.322266 0.257812 2.90177 0.257812 6.06445C0.257812 9.22713 2.8373 11.8066 6 11.8066C9.1627 11.8066 11.7422 9.22716 11.7422 6.06445C11.7422 2.90175 9.16268 0.322266 6 0.322266ZM3.93166 8.28867C3.70786 8.08198 3.51621 7.84202 3.36183 7.57554C2.52881 6.1324 3.0251 4.2803 4.46836 3.44709C4.92527 3.18312 5.43295 3.04603 5.94788 3.04146L5.54796 2.64122L6.04528 2.14411L7.33313 3.43226L6.04528 4.72041L5.54796 4.2233L6.02559 3.74524C5.60702 3.73603 5.19157 3.84138 4.81959 4.05595C3.71203 4.69542 3.33178 6.11651 3.97104 7.22395C4.08914 7.4288 4.23628 7.61299 4.40827 7.77141L3.93166 8.28863V8.28867ZM7.49058 8.68177C7.03678 8.9438 6.52392 9.08013 6.00795 9.08541L6.40995 9.48762L5.91263 9.98482L4.62478 8.69656L5.91263 7.40841L6.40995 7.90561L5.93334 8.3824C6.35191 8.39037 6.77051 8.28532 7.13829 8.07281C8.24585 7.43346 8.62713 6.01226 7.98787 4.90481C7.86769 4.69676 7.71745 4.51006 7.54235 4.35L8.01584 3.83051C8.24482 4.03938 8.43959 4.28255 8.59603 4.55327C9.43008 5.99641 8.93379 7.84852 7.49053 8.68172L7.49058 8.68177Z" fill="#0066FF"/>
</g>
<defs>
<clipPath id="clip0_242_3973">
<rect width="12" height="12" fill="white" transform="translate(0 0.0644531)"/>
</clipPath>
</defs>
</svg>
