<svg width="12" height="13" viewBox="0 0 12 13" fill="none" xmlns="http://www.w3.org/2000/svg">
<g id="share 1">
<path id="Vector" fill-rule="evenodd" clip-rule="evenodd" d="M10.5017 5.06445C10.7779 5.06445 11.0017 4.84059 11.0017 4.56445V1.56445C11.0017 1.28831 10.7779 1.06445 10.5017 1.06445H7.49995C7.2238 1.06445 6.99995 1.28831 6.99995 1.56445C6.99995 1.84059 7.2238 2.06445 7.49995 2.06445H9.29475L4.99142 6.36775C4.79615 6.563 4.79615 6.8796 4.99142 7.07485C5.1867 7.27015 5.50325 7.27015 5.6985 7.07485L10.0017 2.77164V4.56445C10.0017 4.84059 10.2256 5.06445 10.5017 5.06445ZM2.5 2.56445C1.67158 2.56445 1 3.23603 1 4.06445V9.56445C1 10.3929 1.67158 11.0645 2.5 11.0645H8C8.82845 11.0645 9.5 10.3929 9.5 9.56445V6.56445C9.5 6.2883 9.27615 6.06445 9 6.06445C8.72385 6.06445 8.5 6.2883 8.5 6.56445V9.56445C8.5 9.8406 8.27615 10.0645 8 10.0645H2.5C2.22386 10.0645 2 9.8406 2 9.56445V4.06445C2 3.78831 2.22386 3.56445 2.5 3.56445H5.5C5.77615 3.56445 6 3.34059 6 3.06445C6 2.78831 5.77615 2.56445 5.5 2.56445H2.5Z" fill="white"/>
</g>
</svg>
