<svg width="12" height="13" viewBox="0 0 12 13" fill="none" xmlns="http://www.w3.org/2000/svg">
<path d="M10.5 9.56445H1.5C1.36739 9.56445 1.24021 9.61713 1.14645 9.7109C1.05268 9.80467 1 9.93184 1 10.0645C1 10.1971 1.05268 10.3242 1.14645 10.418C1.24021 10.5118 1.36739 10.5645 1.5 10.5645H10.5C10.6326 10.5645 10.7598 10.5118 10.8536 10.418C10.9473 10.3242 11 10.1971 11 10.0645C11 9.93184 10.9473 9.80467 10.8536 9.7109C10.7598 9.61713 10.6326 9.56445 10.5 9.56445Z" fill="#131313"/>
<path d="M6.00009 1.06445C5.86748 1.06445 5.74031 1.11713 5.64654 1.2109C5.55277 1.30467 5.50009 1.43184 5.50009 1.56445V6.85945L3.85509 5.20945C3.76094 5.1153 3.63324 5.06241 3.50009 5.06241C3.36694 5.06241 3.23924 5.1153 3.14509 5.20945C3.05094 5.30361 2.99805 5.4313 2.99805 5.56445C2.99805 5.6976 3.05094 5.8253 3.14509 5.91945L5.64509 8.41945C5.69157 8.46632 5.74687 8.50352 5.8078 8.5289C5.86873 8.55428 5.93409 8.56735 6.00009 8.56735C6.0661 8.56735 6.13145 8.55428 6.19238 8.5289C6.25331 8.50352 6.30861 8.46632 6.35509 8.41945L8.85509 5.91945C8.90171 5.87283 8.93869 5.81749 8.96392 5.75658C8.98915 5.69567 9.00214 5.63038 9.00214 5.56445C9.00214 5.49852 8.98915 5.43324 8.96392 5.37233C8.93869 5.31142 8.90171 5.25607 8.85509 5.20945C8.80847 5.16283 8.75313 5.12585 8.69222 5.10062C8.63131 5.07539 8.56602 5.06241 8.50009 5.06241C8.43416 5.06241 8.36888 5.07539 8.30797 5.10062C8.24706 5.12585 8.19171 5.16283 8.14509 5.20945L6.50009 6.85945V1.56445C6.50009 1.43184 6.44741 1.30467 6.35365 1.2109C6.25988 1.11713 6.1327 1.06445 6.00009 1.06445Z" fill="#131313"/>
</svg>
