<svg width="16" height="17" viewBox="0 0 16 17" fill="none" xmlns="http://www.w3.org/2000/svg">
<g clip-path="url(#clip0_246_432)">
<path d="M14.8764 7.0398C14.8151 5.29455 14.1084 3.66255 12.8674 2.42155C11.5666 1.12055 9.83789 0.404297 7.99989 0.404297C4.28764 0.404297 1.25439 3.35905 1.12364 7.0398C0.557144 7.29155 0.160645 7.85855 0.160645 8.51755V10.333C0.160645 11.2245 0.885895 11.95 1.77764 11.95C2.35464 11.95 2.82389 11.4808 2.82389 10.9038V7.94655C2.82389 7.4048 2.40839 6.96305 1.88014 6.91055C2.07514 3.7038 4.74464 1.1543 7.99989 1.1543C9.63789 1.1543 11.1781 1.7928 12.3374 2.95205C13.4019 4.01655 14.0249 5.40405 14.1186 6.9108C13.5909 6.9638 13.1761 7.4053 13.1761 7.94655V10.9035C13.1761 11.4498 13.5981 11.8943 14.1326 11.9405V12.6878C14.1326 13.5293 13.4479 14.2138 12.6064 14.2138H11.4761C11.4206 14.0553 11.3336 13.9088 11.2116 13.7873C10.9979 13.5725 10.7129 13.4543 10.4094 13.4543H9.24439C9.07714 13.4543 8.91664 13.4898 8.76964 13.5583C8.36864 13.7425 8.10964 14.147 8.10964 14.5888C8.10964 14.8923 8.22789 15.1773 8.44214 15.3905C8.65639 15.6053 8.94139 15.7235 9.24439 15.7235H10.4094C10.8924 15.7235 11.3181 15.4113 11.4769 14.9638H12.6064C13.8616 14.9638 14.8826 13.9428 14.8826 12.6878V11.807C15.4456 11.5538 15.8391 10.9888 15.8391 10.3325V8.51705C15.8391 7.85855 15.4426 7.29155 14.8764 7.0398ZM2.07364 7.94655V10.9035C2.07364 11.0668 1.94089 11.1998 1.77739 11.1998C1.29939 11.1998 0.910395 10.8108 0.910395 10.3328V8.5173C0.910395 8.03905 1.29939 7.6503 1.77739 7.6503C1.94089 7.6503 2.07364 7.7833 2.07364 7.94655ZM10.7856 14.6693C10.7484 14.8458 10.5899 14.974 10.4091 14.974H9.24414C9.14164 14.974 9.04539 14.934 8.97189 14.8605C8.89939 14.7883 8.85939 14.6918 8.85939 14.5893C8.85939 14.4395 8.94714 14.3028 9.08464 14.2395C9.13364 14.2165 9.18739 14.2048 9.24414 14.2048H10.4091C10.5116 14.2048 10.6079 14.2445 10.6811 14.318C10.7536 14.3903 10.7936 14.4868 10.7936 14.5893C10.7939 14.6168 10.7909 14.6443 10.7856 14.6693ZM15.0891 10.3328C15.0891 10.8108 14.7001 11.1998 14.2221 11.1998C14.0589 11.1998 13.9259 11.067 13.9259 10.9035V7.94655C13.9259 7.7833 14.0586 7.6503 14.2221 7.6503C14.7001 7.6503 15.0891 8.0393 15.0891 8.5173V10.3328Z" fill="#131313"/>
<path d="M10.4279 10.4616C11.3042 10.4616 12.0169 9.74865 12.0169 8.87265V5.6349C12.0169 5.2114 11.8514 4.8124 11.5509 4.5119C11.2504 4.2114 10.8517 4.0459 10.4279 4.0459H5.57142C4.69517 4.0459 3.98242 4.75865 3.98242 5.6349V8.87265C3.98242 9.7489 4.69517 10.4616 5.57142 10.4616H5.60117V11.3006C5.60117 11.6206 5.79192 11.9046 6.08692 12.0244C6.18217 12.0626 6.28117 12.0816 6.37917 12.0816C6.58342 12.0816 6.78242 12.0006 6.92817 11.8499L8.32392 10.4616H10.4279ZM7.90517 9.82065L6.39467 11.3229C6.38792 11.3299 6.38292 11.3351 6.36867 11.3289C6.35142 11.3219 6.35142 11.3106 6.35142 11.3006V10.0866C6.35142 9.87965 6.18367 9.71165 5.97642 9.71165H5.57167C5.10892 9.71165 4.73267 9.33515 4.73267 8.87265V5.6349C4.73267 5.17215 5.10892 4.7959 5.57167 4.7959H10.4282C10.6517 4.7959 10.8619 4.8834 11.0209 5.04215C11.1799 5.20115 11.2672 5.41165 11.2672 5.6349V8.87265C11.2672 9.3354 10.8907 9.71165 10.4282 9.71165H8.16967C8.07042 9.71165 7.97542 9.7509 7.90517 9.82065Z" fill="#131313"/>
<path d="M6.17825 6.76074C5.87325 6.76074 5.625 7.00924 5.625 7.31399C5.625 7.61874 5.8735 7.86724 6.17825 7.86724C6.4835 7.86724 6.732 7.61874 6.732 7.31399C6.732 7.00924 6.48375 6.76074 6.17825 6.76074Z" fill="#131313"/>
<path d="M7.99954 6.76074C7.69454 6.76074 7.44629 7.00924 7.44629 7.31399C7.44629 7.61874 7.69479 7.86724 7.99954 7.86724C8.30504 7.86724 8.55329 7.61874 8.55329 7.31399C8.55329 7.00924 8.30504 6.76074 7.99954 6.76074Z" fill="#131313"/>
<path d="M9.82132 6.76074C9.51632 6.76074 9.26807 7.00924 9.26807 7.31399C9.26807 7.61874 9.51657 7.86724 9.82132 7.86724C10.1266 7.86724 10.3751 7.61874 10.3751 7.31399C10.3751 7.00924 10.1266 6.76074 9.82132 6.76074Z" fill="#131313"/>
</g>
<defs>
<clipPath id="clip0_246_432">
<rect width="16" height="16" fill="white" transform="translate(0 0.0644531)"/>
</clipPath>
</defs>
</svg>
